<?xml version="1.0" encoding="utf-8"?>
<!-- Generator: Adobe Illustrator 16.0.0, SVG Export Plug-In . SVG Version: 6.00 Build 0)  -->
<!DOCTYPE svg PUBLIC "-//W3C//DTD SVG 1.1//EN" "http://www.w3.org/Graphics/SVG/1.1/DTD/svg11.dtd">
<svg version="1.1" id="Layer_1" xmlns="http://www.w3.org/2000/svg" xmlns:xlink="http://www.w3.org/1999/xlink" x="0px" y="0px"
	 width="400px" height="200px" viewBox="0 0 400 200" enable-background="new 0 0 400 200" xml:space="preserve">
<g>
	<polyline opacity="0.4" fill="#666666" enable-background="new    " points="109.429,23.015 9.656,173.958 74.099,199.367 
		191.641,199.73 353.755,199.355 	"/>
	<rect x="130" y="18.999" opacity="0.4" fill="#F2F2F2" enable-background="new    " width="268" height="113"/>
	<g enable-background="new    ">
		<path fill="#666666" d="M193.896,74.44v48.059h-3.761V80.754l-18.807,28.748l-18.773-28.748v41.745h-3.761V74.44h4.131
			l18.404,28.177l18.438-28.177H193.896z"/>
		<path fill="#666666" d="M248.705,98.353c0,6.269-2.139,11.709-6.414,16.321c-4.277,4.567-9.517,7.098-15.718,7.59v2.687h-3.762
			v-2.687c-6.202-0.492-11.43-3.022-15.684-7.59c-4.299-4.612-6.448-10.053-6.448-16.321c0-6.292,2.149-11.743,6.448-16.355
			c4.254-4.567,9.481-7.097,15.684-7.59V71.72h3.762v2.687c6.201,0.493,11.44,3.034,15.718,7.624
			C246.566,86.621,248.705,92.061,248.705,98.353z M204.441,98.353c0,5.239,1.769,9.795,5.307,13.668
			c3.537,3.852,7.892,6.012,13.063,6.482V78.168c-5.172,0.47-9.526,2.631-13.063,6.481C206.21,88.524,204.441,93.091,204.441,98.353
			z M226.573,118.503c5.172-0.471,9.526-2.631,13.063-6.482c3.537-3.873,5.307-8.429,5.307-13.668c0-5.261-1.77-9.829-5.307-13.703
			c-3.537-3.851-7.892-6.011-13.063-6.481V118.503z"/>
		<path fill="#666666" d="M296.897,74.374v48.125h-3.728v-11.083l-33.887-32.643v43.726h-3.761V74.374h4.567l33.08,31.804V74.374
			H296.897z"/>
		<path fill="#666666" d="M329.843,114.54c1.858,2.015,3.213,3.19,4.064,3.526c0.828,0.335,2.876,0.503,6.146,0.503v3.729
			c-3.94,0-6.504-0.246-7.69-0.739c-1.231-0.492-3.022-2.026-5.374-4.601l-14.239-18.203l-5.373,5.004v18.74h-3.762V74.407h3.762
			v24.214l25.993-24.214h5.374l-0.639,0.504l-22.602,21.292L329.843,114.54z"/>
		<path fill="#666666" d="M348.65,122.499v-3.762h22.669c3,0,5.508-0.962,7.522-2.888c2.037-1.903,3.057-4.276,3.057-7.12
			c0-2.888-1.03-5.328-3.09-7.321c-2.038-1.97-4.534-2.955-7.489-2.955h-10.176c-5.374,0-9.258-1.198-11.653-3.594
			c-1.813-1.813-2.721-4.243-2.721-7.288c0-3.806,1.354-6.952,4.063-9.437c2.709-2.462,6.146-3.694,10.311-3.694h22.636v3.728
			h-22.636c-3.112,0-5.665,0.873-7.657,2.62c-1.971,1.746-2.955,4.008-2.955,6.784c0,2.038,0.582,3.605,1.746,4.702
			c1.679,1.635,4.635,2.452,8.866,2.452h10.176c4.008,0,7.399,1.343,10.176,4.03c2.776,2.71,4.164,6.034,4.164,9.975
			c0,3.918-1.377,7.188-4.131,9.807c-2.753,2.643-6.157,3.963-10.209,3.963H348.65z"/>
	</g>
	<g enable-background="new    ">
		<path fill="none" stroke="#666666" stroke-width="2.5474" stroke-miterlimit="10" d="M193.896,74.44v48.059h-3.761V80.754
			l-18.807,28.748l-18.773-28.748v41.745h-3.761V74.44h4.131l18.404,28.177l18.438-28.177H193.896z"/>
		<path fill="none" stroke="#666666" stroke-width="2.5474" stroke-miterlimit="10" d="M248.705,98.353
			c0,6.269-2.139,11.709-6.414,16.321c-4.277,4.567-9.517,7.098-15.718,7.59v2.687h-3.762v-2.687
			c-6.202-0.492-11.43-3.022-15.684-7.59c-4.299-4.612-6.448-10.053-6.448-16.321c0-6.292,2.149-11.743,6.448-16.355
			c4.254-4.567,9.481-7.097,15.684-7.59V71.72h3.762v2.687c6.201,0.493,11.44,3.034,15.718,7.624
			C246.566,86.621,248.705,92.061,248.705,98.353z M204.441,98.353c0,5.239,1.769,9.795,5.307,13.668
			c3.537,3.852,7.892,6.012,13.063,6.482V78.168c-5.172,0.47-9.526,2.631-13.063,6.481C206.21,88.524,204.441,93.091,204.441,98.353
			z M226.573,118.503c5.172-0.471,9.526-2.631,13.063-6.482c3.537-3.873,5.307-8.429,5.307-13.668c0-5.261-1.77-9.829-5.307-13.703
			c-3.537-3.851-7.892-6.011-13.063-6.481V118.503z"/>
		<path fill="none" stroke="#666666" stroke-width="2.5474" stroke-miterlimit="10" d="M296.897,74.374v48.125h-3.728v-11.083
			l-33.887-32.643v43.726h-3.761V74.374h4.567l33.08,31.804V74.374H296.897z"/>
		<path fill="none" stroke="#666666" stroke-width="2.5474" stroke-miterlimit="10" d="M329.843,114.54
			c1.858,2.015,3.213,3.19,4.064,3.526c0.828,0.335,2.876,0.503,6.146,0.503v3.729c-3.94,0-6.504-0.246-7.69-0.739
			c-1.231-0.492-3.022-2.026-5.374-4.601l-14.239-18.203l-5.373,5.004v18.74h-3.762V74.407h3.762v24.214l25.993-24.214h5.374
			l-0.639,0.504l-22.602,21.292L329.843,114.54z"/>
		<path fill="none" stroke="#666666" stroke-width="2.5474" stroke-miterlimit="10" d="M348.65,122.499v-3.762h22.669
			c3,0,5.508-0.962,7.522-2.888c2.037-1.903,3.057-4.276,3.057-7.12c0-2.888-1.03-5.328-3.09-7.321
			c-2.038-1.97-4.534-2.955-7.489-2.955h-10.176c-5.374,0-9.258-1.198-11.653-3.594c-1.813-1.813-2.721-4.243-2.721-7.288
			c0-3.806,1.354-6.952,4.063-9.437c2.709-2.462,6.146-3.694,10.311-3.694h22.636v3.728h-22.636c-3.112,0-5.665,0.873-7.657,2.62
			c-1.971,1.746-2.955,4.008-2.955,6.784c0,2.038,0.582,3.605,1.746,4.702c1.679,1.635,4.635,2.452,8.866,2.452h10.176
			c4.008,0,7.399,1.343,10.176,4.03c2.776,2.71,4.164,6.034,4.164,9.975c0,3.918-1.377,7.188-4.131,9.807
			c-2.753,2.643-6.157,3.963-10.209,3.963H348.65z"/>
	</g>
	<g enable-background="new    ">
		<path fill="#FFEFCF" d="M192.24,73.042v48.059h-3.761V79.356l-18.807,28.748l-18.773-28.748v41.745h-3.761V73.042h4.131
			l18.404,28.177l18.438-28.177H192.24z"/>
		<path fill="#FFEFCF" d="M247.049,96.954c0,6.269-2.139,11.709-6.414,16.321c-4.277,4.567-9.517,7.098-15.718,7.59v2.687h-3.762
			v-2.687c-6.202-0.492-11.43-3.022-15.684-7.59c-4.299-4.612-6.448-10.053-6.448-16.321c0-6.292,2.149-11.743,6.448-16.355
			c4.254-4.567,9.481-7.097,15.684-7.59v-2.687h3.762v2.687c6.201,0.493,11.44,3.034,15.718,7.624
			C244.91,85.222,247.049,90.663,247.049,96.954z M202.785,96.954c0,5.239,1.769,9.795,5.307,13.668
			c3.537,3.852,7.892,6.012,13.063,6.482V76.77c-5.172,0.47-9.526,2.631-13.063,6.481C204.554,87.125,202.785,91.693,202.785,96.954
			z M224.917,117.104c5.172-0.471,9.526-2.631,13.063-6.482c3.537-3.873,5.307-8.429,5.307-13.668c0-5.261-1.77-9.829-5.307-13.703
			c-3.537-3.851-7.892-6.011-13.063-6.481V117.104z"/>
		<path fill="#FFEFCF" d="M295.241,72.975v48.125h-3.728v-11.083l-33.887-32.643v43.726h-3.761V72.975h4.567l33.08,31.804V72.975
			H295.241z"/>
		<path fill="#FFEFCF" d="M328.187,113.142c1.858,2.015,3.213,3.19,4.064,3.526c0.828,0.335,2.876,0.503,6.146,0.503v3.729
			c-3.94,0-6.504-0.246-7.69-0.739c-1.231-0.492-3.022-2.026-5.374-4.601l-14.239-18.203l-5.373,5.004v18.74h-3.762V73.008h3.762
			v24.214l25.993-24.214h5.374l-0.639,0.504l-22.602,21.292L328.187,113.142z"/>
		<path fill="#FFEFCF" d="M346.994,121.101v-3.762h22.669c3,0,5.508-0.962,7.522-2.888c2.037-1.903,3.057-4.276,3.057-7.12
			c0-2.888-1.03-5.328-3.09-7.321c-2.038-1.97-4.534-2.955-7.489-2.955h-10.176c-5.374,0-9.258-1.198-11.653-3.594
			c-1.813-1.813-2.721-4.243-2.721-7.288c0-3.806,1.354-6.952,4.063-9.437c2.709-2.462,6.146-3.694,10.311-3.694h22.636v3.728
			h-22.636c-3.112,0-5.665,0.873-7.657,2.62c-1.971,1.746-2.955,4.008-2.955,6.784c0,2.038,0.582,3.605,1.746,4.702
			c1.679,1.635,4.635,2.452,8.866,2.452h10.176c4.008,0,7.399,1.343,10.176,4.03c2.776,2.71,4.164,6.034,4.164,9.975
			c0,3.918-1.377,7.188-4.131,9.807c-2.753,2.643-6.157,3.963-10.209,3.963H346.994z"/>
	</g>
	<g enable-background="new    ">
		<path fill="#666666" d="M167.188,42.107c-0.423,0.508-0.881,1.015-1.375,1.522c-0.536,0.55-1.107,1.029-1.713,1.438
			c-0.31,0.212-0.669,0.416-1.078,0.613v12.751h-2.39V46.4c-1.635,0.253-3.292,0.126-4.969-0.381
			c-1.043-0.324-2.072-0.698-3.087-1.121c-0.931-0.352-1.875-0.684-2.833-0.994c-2.199-0.69-3.884-0.577-5.054,0.339
			c-0.438,0.353-0.733,0.705-0.888,1.058c-0.226,0.55-0.338,1.466-0.338,2.748v10.383h-2.368v-30.28h2.368v14.083
			c1.029-0.732,2.213-1.1,3.552-1.1c1.198,0,2.347,0.177,3.447,0.528c0.986,0.311,1.98,0.656,2.981,1.036
			c0.973,0.409,1.945,0.762,2.918,1.058c0.902,0.268,1.854,0.401,2.855,0.401c0.465,0,0.937-0.049,1.417-0.147V28.151h2.39v14.78
			c0.409-0.31,0.775-0.627,1.099-0.951c0.465-0.479,0.881-0.944,1.248-1.396L167.188,42.107z"/>
		<path fill="#666666" d="M201.696,43.229c0,3.947-1.346,7.372-4.039,10.276c-2.693,2.876-5.991,4.469-9.896,4.778v1.692h-2.368
			v-1.692c-3.905-0.31-7.197-1.902-9.875-4.778c-2.707-2.904-4.06-6.329-4.06-10.276c0-3.962,1.354-7.394,4.06-10.298
			c2.678-2.875,5.97-4.468,9.875-4.779V26.46h2.368v1.691c3.905,0.311,7.203,1.911,9.896,4.8
			C200.35,35.842,201.696,39.267,201.696,43.229z M173.827,43.229c0,3.298,1.114,6.167,3.341,8.605
			c2.227,2.425,4.969,3.785,8.226,4.081V30.52c-3.256,0.296-5.999,1.657-8.226,4.081C174.94,37.04,173.827,39.916,173.827,43.229z
			 M187.762,55.915c3.256-0.296,5.998-1.656,8.226-4.081c2.227-2.438,3.341-5.308,3.341-8.605c0-3.312-1.114-6.188-3.341-8.628
			c-2.228-2.424-4.969-3.785-8.226-4.081V55.915z"/>
		<path fill="#666666" d="M234.387,28.173v30.259h-2.367V32.148l-11.842,18.1l-11.82-18.1v26.284h-2.368V28.173h2.601l11.588,17.741
			l11.609-17.741H234.387z"/>
		<path fill="#666666" d="M244.156,30.478v9.008c0.789,0.07,1.537,0.247,2.242,0.528c0.816,0.325,1.628,0.677,2.432,1.058
			c0.761,0.395,1.521,0.733,2.283,1.015c1.354,0.536,2.537,0.578,3.553,0.127c0.451-0.183,0.846-0.415,1.184-0.697
			c0.367-0.324,0.719-0.698,1.058-1.121c0.353-0.451,0.684-0.909,0.993-1.374l1.988,1.311c-0.338,0.494-0.705,1.001-1.1,1.522
			c-0.451,0.564-0.916,1.051-1.396,1.459c-0.536,0.451-1.135,0.818-1.798,1.1c-0.705,0.296-1.479,0.444-2.326,0.444
			c-1.043,0-2.043-0.184-3.002-0.55c-0.832-0.31-1.664-0.684-2.495-1.121c-0.747-0.338-1.495-0.669-2.241-0.993
			c-0.395-0.142-0.854-0.247-1.375-0.317v14.188h16.727v2.368h-19.115V42.763c-0.424,0.536-0.748,1.064-0.973,1.586l-2.178-0.973
			c0.408-0.916,0.943-1.755,1.606-2.517c0.423-0.465,0.937-0.824,1.544-1.078V28.109h19.115v2.368H244.156z"/>
		<path fill="#666666" d="M288.541,37.181c0,2.312-0.846,4.335-2.538,6.068c1.692,1.734,2.538,3.757,2.538,6.069
			c0,2.509-0.973,4.659-2.918,6.449c-1.946,1.776-4.286,2.664-7.021,2.664h-12.307V58.41h-1.185V28.088h1.185v-0.021h12.307
			c2.734,0,5.074,0.888,7.021,2.665C287.568,32.521,288.541,34.672,288.541,37.181z M286.173,37.181c0-1.861-0.74-3.447-2.221-4.758
			c-1.48-1.325-3.264-1.988-5.35-1.988h-11.123v9.769h11.123c2.016,0,3.862,0.515,5.54,1.544
			C285.496,40.451,286.173,38.929,286.173,37.181z M281.88,43.249c-1.043-0.451-2.136-0.677-3.277-0.677h-11.123v1.354h11.123
			C279.744,43.926,280.837,43.7,281.88,43.249z M278.603,56.063c2.086,0,3.869-0.662,5.35-1.987c1.48-1.312,2.221-2.897,2.221-4.758
			c0-1.748-0.677-3.271-2.03-4.567c-1.678,1.028-3.524,1.543-5.54,1.543h-11.123v9.77H278.603z"/>
		<path fill="#666666" d="M311.991,53.336c1.197,1.311,2.064,2.079,2.601,2.305c0.535,0.211,1.832,0.317,3.891,0.317v2.368
			c-2.481,0-4.095-0.155-4.842-0.466c-0.775-0.324-1.903-1.297-3.384-2.918l-8.057-8.585h-7.083v12.074h-2.348V28.194h1.205v-0.021
			h12.243c2.735,0,5.068,0.888,7,2.664c1.931,1.776,2.896,3.912,2.896,6.407c0,2.509-0.966,4.659-2.896,6.449
			c-1.932,1.776-4.265,2.664-7,2.664h-0.803L311.991,53.336z M295.117,43.989h11.101c2.072,0,3.842-0.655,5.308-1.967
			c1.494-1.324,2.242-2.918,2.242-4.778c0-1.833-0.748-3.411-2.242-4.737c-1.466-1.311-3.235-1.966-5.308-1.966h-11.101V43.989z"/>
		<path fill="#666666" d="M328.251,30.478v9.008c0.79,0.07,1.537,0.247,2.242,0.528c0.817,0.325,1.628,0.677,2.432,1.058
			c0.761,0.395,1.522,0.733,2.283,1.015c1.354,0.536,2.537,0.578,3.553,0.127c0.451-0.183,0.846-0.415,1.184-0.697
			c0.367-0.324,0.72-0.698,1.058-1.121c0.353-0.451,0.684-0.909,0.994-1.374l1.987,1.311c-0.338,0.494-0.705,1.001-1.1,1.522
			c-0.451,0.564-0.916,1.051-1.396,1.459c-0.536,0.451-1.135,0.818-1.797,1.1c-0.705,0.296-1.48,0.444-2.326,0.444
			c-1.044,0-2.045-0.184-3.003-0.55c-0.832-0.31-1.663-0.684-2.495-1.121c-0.747-0.338-1.494-0.669-2.241-0.993
			c-0.396-0.142-0.854-0.247-1.375-0.317v14.188h16.727v2.368h-19.115V42.763c-0.423,0.536-0.748,1.064-0.973,1.586l-2.179-0.973
			c0.409-0.916,0.944-1.755,1.607-2.517c0.423-0.465,0.938-0.824,1.544-1.078V28.109h19.115v2.368H328.251z"/>
		<path fill="#666666" d="M393.611,28.151l-13.597,30.28h-3.045l-5.561-12.412l-5.583,12.412h-3.023l-13.597-30.28h2.602
			l12.518,27.891l5.772-12.898l-6.724-14.992h2.601l5.435,12.096l5.413-12.096h2.601l-6.724,14.992l5.793,12.898l12.519-27.891
			H393.611z"/>
	</g>
	<g enable-background="new    ">
		<path fill="none" stroke="#666666" stroke-width="2.5474" stroke-miterlimit="10" d="M167.188,42.107
			c-0.423,0.508-0.881,1.015-1.375,1.522c-0.536,0.55-1.107,1.029-1.713,1.438c-0.31,0.212-0.669,0.416-1.078,0.613v12.751h-2.39
			V46.4c-1.635,0.253-3.292,0.126-4.969-0.381c-1.043-0.324-2.072-0.698-3.087-1.121c-0.931-0.352-1.875-0.684-2.833-0.994
			c-2.199-0.69-3.884-0.577-5.054,0.339c-0.438,0.353-0.733,0.705-0.888,1.058c-0.226,0.55-0.338,1.466-0.338,2.748v10.383h-2.368
			v-30.28h2.368v14.083c1.029-0.732,2.213-1.1,3.552-1.1c1.198,0,2.347,0.177,3.447,0.528c0.986,0.311,1.98,0.656,2.981,1.036
			c0.973,0.409,1.945,0.762,2.918,1.058c0.902,0.268,1.854,0.401,2.855,0.401c0.465,0,0.937-0.049,1.417-0.147V28.151h2.39v14.78
			c0.409-0.31,0.775-0.627,1.099-0.951c0.465-0.479,0.881-0.944,1.248-1.396L167.188,42.107z"/>
		<path fill="none" stroke="#666666" stroke-width="2.5474" stroke-miterlimit="10" d="M201.696,43.229
			c0,3.947-1.346,7.372-4.039,10.276c-2.693,2.876-5.991,4.469-9.896,4.778v1.692h-2.368v-1.692
			c-3.905-0.31-7.197-1.902-9.875-4.778c-2.707-2.904-4.06-6.329-4.06-10.276c0-3.962,1.354-7.394,4.06-10.298
			c2.678-2.875,5.97-4.468,9.875-4.779V26.46h2.368v1.691c3.905,0.311,7.203,1.911,9.896,4.8
			C200.35,35.842,201.696,39.267,201.696,43.229z M173.827,43.229c0,3.298,1.114,6.167,3.341,8.605
			c2.227,2.425,4.969,3.785,8.226,4.081V30.52c-3.256,0.296-5.999,1.657-8.226,4.081C174.94,37.04,173.827,39.916,173.827,43.229z
			 M187.762,55.915c3.256-0.296,5.998-1.656,8.226-4.081c2.227-2.438,3.341-5.308,3.341-8.605c0-3.312-1.114-6.188-3.341-8.628
			c-2.228-2.424-4.969-3.785-8.226-4.081V55.915z"/>
		<path fill="none" stroke="#666666" stroke-width="2.5474" stroke-miterlimit="10" d="M234.387,28.173v30.259h-2.367V32.148
			l-11.842,18.1l-11.82-18.1v26.284h-2.368V28.173h2.601l11.588,17.741l11.609-17.741H234.387z"/>
		<path fill="none" stroke="#666666" stroke-width="2.5474" stroke-miterlimit="10" d="M244.156,30.478v9.008
			c0.789,0.07,1.537,0.247,2.242,0.528c0.816,0.325,1.628,0.677,2.432,1.058c0.761,0.395,1.521,0.733,2.283,1.015
			c1.354,0.536,2.537,0.578,3.553,0.127c0.451-0.183,0.846-0.415,1.184-0.697c0.367-0.324,0.719-0.698,1.058-1.121
			c0.353-0.451,0.684-0.909,0.993-1.374l1.988,1.311c-0.338,0.494-0.705,1.001-1.1,1.522c-0.451,0.564-0.916,1.051-1.396,1.459
			c-0.536,0.451-1.135,0.818-1.798,1.1c-0.705,0.296-1.479,0.444-2.326,0.444c-1.043,0-2.043-0.184-3.002-0.55
			c-0.832-0.31-1.664-0.684-2.495-1.121c-0.747-0.338-1.495-0.669-2.241-0.993c-0.395-0.142-0.854-0.247-1.375-0.317v14.188h16.727
			v2.368h-19.115V42.763c-0.424,0.536-0.748,1.064-0.973,1.586l-2.178-0.973c0.408-0.916,0.943-1.755,1.606-2.517
			c0.423-0.465,0.937-0.824,1.544-1.078V28.109h19.115v2.368H244.156z"/>
		<path fill="none" stroke="#666666" stroke-width="2.5474" stroke-miterlimit="10" d="M288.541,37.181
			c0,2.312-0.846,4.335-2.538,6.068c1.692,1.734,2.538,3.757,2.538,6.069c0,2.509-0.973,4.659-2.918,6.449
			c-1.946,1.776-4.286,2.664-7.021,2.664h-12.307V58.41h-1.185V28.088h1.185v-0.021h12.307c2.734,0,5.074,0.888,7.021,2.665
			C287.568,32.521,288.541,34.672,288.541,37.181z M286.173,37.181c0-1.861-0.74-3.447-2.221-4.758
			c-1.48-1.325-3.264-1.988-5.35-1.988h-11.123v9.769h11.123c2.016,0,3.862,0.515,5.54,1.544
			C285.496,40.451,286.173,38.929,286.173,37.181z M281.88,43.249c-1.043-0.451-2.136-0.677-3.277-0.677h-11.123v1.354h11.123
			C279.744,43.926,280.837,43.7,281.88,43.249z M278.603,56.063c2.086,0,3.869-0.662,5.35-1.987c1.48-1.312,2.221-2.897,2.221-4.758
			c0-1.748-0.677-3.271-2.03-4.567c-1.678,1.028-3.524,1.543-5.54,1.543h-11.123v9.77H278.603z"/>
		<path fill="none" stroke="#666666" stroke-width="2.5474" stroke-miterlimit="10" d="M311.991,53.336
			c1.197,1.311,2.064,2.079,2.601,2.305c0.535,0.211,1.832,0.317,3.891,0.317v2.368c-2.481,0-4.095-0.155-4.842-0.466
			c-0.775-0.324-1.903-1.297-3.384-2.918l-8.057-8.585h-7.083v12.074h-2.348V28.194h1.205v-0.021h12.243
			c2.735,0,5.068,0.888,7,2.664c1.931,1.776,2.896,3.912,2.896,6.407c0,2.509-0.966,4.659-2.896,6.449
			c-1.932,1.776-4.265,2.664-7,2.664h-0.803L311.991,53.336z M295.117,43.989h11.101c2.072,0,3.842-0.655,5.308-1.967
			c1.494-1.324,2.242-2.918,2.242-4.778c0-1.833-0.748-3.411-2.242-4.737c-1.466-1.311-3.235-1.966-5.308-1.966h-11.101V43.989z"/>
		<path fill="none" stroke="#666666" stroke-width="2.5474" stroke-miterlimit="10" d="M328.251,30.478v9.008
			c0.79,0.07,1.537,0.247,2.242,0.528c0.817,0.325,1.628,0.677,2.432,1.058c0.761,0.395,1.522,0.733,2.283,1.015
			c1.354,0.536,2.537,0.578,3.553,0.127c0.451-0.183,0.846-0.415,1.184-0.697c0.367-0.324,0.72-0.698,1.058-1.121
			c0.353-0.451,0.684-0.909,0.994-1.374l1.987,1.311c-0.338,0.494-0.705,1.001-1.1,1.522c-0.451,0.564-0.916,1.051-1.396,1.459
			c-0.536,0.451-1.135,0.818-1.797,1.1c-0.705,0.296-1.48,0.444-2.326,0.444c-1.044,0-2.045-0.184-3.003-0.55
			c-0.832-0.31-1.663-0.684-2.495-1.121c-0.747-0.338-1.494-0.669-2.241-0.993c-0.396-0.142-0.854-0.247-1.375-0.317v14.188h16.727
			v2.368h-19.115V42.763c-0.423,0.536-0.748,1.064-0.973,1.586l-2.179-0.973c0.409-0.916,0.944-1.755,1.607-2.517
			c0.423-0.465,0.938-0.824,1.544-1.078V28.109h19.115v2.368H328.251z"/>
		<path fill="none" stroke="#666666" stroke-width="2.5474" stroke-miterlimit="10" d="M393.611,28.151l-13.597,30.28h-3.045
			l-5.561-12.412l-5.583,12.412h-3.023l-13.597-30.28h2.602l12.518,27.891l5.772-12.898l-6.724-14.992h2.601l5.435,12.096
			l5.413-12.096h2.601l-6.724,14.992l5.793,12.898l12.519-27.891H393.611z"/>
	</g>
	<g enable-background="new    ">
		<path fill="#FFEFCF" d="M165.405,41.091c-0.423,0.508-0.881,1.015-1.375,1.522c-0.536,0.55-1.107,1.029-1.713,1.438
			c-0.31,0.212-0.669,0.416-1.078,0.613v12.751h-2.39V45.384c-1.635,0.253-3.292,0.126-4.969-0.381
			c-1.043-0.324-2.072-0.698-3.087-1.121c-0.931-0.352-1.875-0.684-2.833-0.994c-2.199-0.69-3.884-0.577-5.054,0.339
			c-0.438,0.353-0.733,0.705-0.888,1.058c-0.226,0.55-0.338,1.466-0.338,2.748v10.383h-2.368v-30.28h2.368v14.083
			c1.029-0.732,2.213-1.1,3.552-1.1c1.198,0,2.347,0.177,3.447,0.528c0.986,0.311,1.98,0.656,2.981,1.036
			c0.973,0.409,1.945,0.762,2.918,1.058c0.902,0.268,1.854,0.401,2.855,0.401c0.465,0,0.937-0.049,1.417-0.147V27.135h2.39v14.78
			c0.409-0.31,0.775-0.627,1.099-0.951c0.465-0.479,0.881-0.944,1.248-1.396L165.405,41.091z"/>
		<path fill="#FFEFCF" d="M199.914,42.212c0,3.947-1.346,7.372-4.039,10.276c-2.693,2.876-5.991,4.469-9.896,4.778v1.692h-2.368
			v-1.692c-3.905-0.31-7.197-1.902-9.875-4.778c-2.707-2.904-4.06-6.329-4.06-10.276c0-3.962,1.354-7.394,4.06-10.298
			c2.678-2.875,5.97-4.468,9.875-4.779v-1.691h2.368v1.691c3.905,0.311,7.203,1.911,9.896,4.8
			C198.568,34.825,199.914,38.25,199.914,42.212z M172.044,42.212c0,3.298,1.114,6.167,3.341,8.605
			c2.227,2.425,4.969,3.785,8.226,4.081V29.503c-3.256,0.296-5.999,1.657-8.226,4.081C173.158,36.023,172.044,38.899,172.044,42.212
			z M185.979,54.898c3.256-0.296,5.998-1.656,8.226-4.081c2.227-2.438,3.341-5.308,3.341-8.605c0-3.312-1.114-6.188-3.341-8.628
			c-2.228-2.424-4.969-3.785-8.226-4.081V54.898z"/>
		<path fill="#FFEFCF" d="M232.605,27.156v30.259h-2.369V31.131l-11.841,18.1l-11.82-18.1v26.284h-2.368V27.156h2.601l11.588,17.741
			l11.608-17.741H232.605z"/>
		<path fill="#FFEFCF" d="M242.375,29.461v9.008c0.789,0.07,1.535,0.247,2.24,0.528c0.818,0.325,1.629,0.677,2.432,1.058
			c0.762,0.395,1.523,0.733,2.284,1.015c1.354,0.536,2.538,0.578,3.553,0.127c0.45-0.183,0.846-0.415,1.185-0.697
			c0.365-0.324,0.719-0.698,1.057-1.121c0.352-0.451,0.684-0.909,0.994-1.374l1.987,1.311c-0.339,0.494-0.705,1.001-1.1,1.522
			c-0.451,0.564-0.917,1.051-1.396,1.459c-0.536,0.451-1.135,0.818-1.797,1.1c-0.705,0.296-1.48,0.444-2.326,0.444
			c-1.043,0-2.045-0.184-3.003-0.55c-0.832-0.31-1.663-0.684-2.495-1.121c-0.748-0.338-1.494-0.669-2.241-0.993
			c-0.396-0.142-0.854-0.247-1.374-0.317v14.188H259.1v2.368h-19.115V41.746c-0.422,0.536-0.746,1.064-0.973,1.586l-2.178-0.973
			c0.409-0.916,0.944-1.755,1.607-2.517c0.423-0.465,0.938-0.824,1.543-1.078V27.093H259.1v2.368H242.375z"/>
		<path fill="#FFEFCF" d="M286.759,36.164c0,2.312-0.846,4.335-2.538,6.068c1.692,1.734,2.538,3.757,2.538,6.069
			c0,2.509-0.973,4.659-2.918,6.449c-1.946,1.776-4.286,2.664-7.021,2.664h-12.307v-0.021h-1.185V27.071h1.185V27.05h12.307
			c2.734,0,5.074,0.888,7.021,2.665C285.786,31.505,286.759,33.655,286.759,36.164z M284.391,36.164c0-1.861-0.74-3.447-2.221-4.758
			c-1.48-1.325-3.264-1.988-5.35-1.988h-11.123v9.769h11.123c2.016,0,3.862,0.515,5.54,1.544
			C283.714,39.435,284.391,37.912,284.391,36.164z M280.098,42.232c-1.043-0.451-2.136-0.677-3.277-0.677h-11.123v1.354h11.123
			C277.962,42.909,279.055,42.684,280.098,42.232z M276.82,55.047c2.086,0,3.869-0.662,5.35-1.987
			c1.48-1.312,2.221-2.897,2.221-4.758c0-1.748-0.677-3.271-2.03-4.567c-1.678,1.028-3.524,1.543-5.54,1.543h-11.123v9.77H276.82z"
			/>
		<path fill="#FFEFCF" d="M310.209,52.319c1.197,1.311,2.064,2.079,2.601,2.305c0.535,0.211,1.832,0.317,3.891,0.317v2.368
			c-2.481,0-4.095-0.155-4.842-0.466c-0.775-0.324-1.903-1.297-3.384-2.918l-8.057-8.585h-7.083v12.074h-2.348V27.177h1.205v-0.021
			h12.243c2.735,0,5.068,0.888,7,2.664c1.931,1.776,2.896,3.912,2.896,6.407c0,2.509-0.966,4.659-2.896,6.449
			c-1.932,1.776-4.265,2.664-7,2.664h-0.803L310.209,52.319z M293.335,42.973h11.101c2.072,0,3.842-0.655,5.308-1.967
			c1.494-1.324,2.242-2.918,2.242-4.778c0-1.833-0.748-3.411-2.242-4.737c-1.466-1.311-3.235-1.966-5.308-1.966h-11.101V42.973z"/>
		<path fill="#FFEFCF" d="M326.469,29.461v9.008c0.79,0.07,1.537,0.247,2.242,0.528c0.817,0.325,1.628,0.677,2.432,1.058
			c0.761,0.395,1.522,0.733,2.283,1.015c1.354,0.536,2.537,0.578,3.553,0.127c0.451-0.183,0.846-0.415,1.184-0.697
			c0.367-0.324,0.72-0.698,1.058-1.121c0.353-0.451,0.684-0.909,0.994-1.374l1.987,1.311c-0.338,0.494-0.705,1.001-1.1,1.522
			c-0.451,0.564-0.916,1.051-1.396,1.459c-0.536,0.451-1.135,0.818-1.797,1.1c-0.705,0.296-1.48,0.444-2.326,0.444
			c-1.044,0-2.045-0.184-3.003-0.55c-0.832-0.31-1.663-0.684-2.495-1.121c-0.747-0.338-1.494-0.669-2.241-0.993
			c-0.396-0.142-0.854-0.247-1.375-0.317v14.188h16.727v2.368H324.08V41.746c-0.423,0.536-0.748,1.064-0.973,1.586l-2.179-0.973
			c0.409-0.916,0.944-1.755,1.607-2.517c0.423-0.465,0.938-0.824,1.544-1.078V27.093h19.115v2.368H326.469z"/>
		<path fill="#FFEFCF" d="M391.829,27.135l-13.597,30.28h-3.045l-5.561-12.412l-5.583,12.412h-3.023l-13.597-30.28h2.602
			l12.518,27.891l5.772-12.898l-6.724-14.992h2.601l5.435,12.096l5.413-12.096h2.601l-6.724,14.992l5.793,12.898l12.519-27.891
			H391.829z"/>
	</g>
	<g>
		<rect x="27" y="41.999" fill="#FED677" width="56" height="140"/>
		<polygon fill="#E1AA2A" points="27,41.999 7,41.999 7,174.38 27,181.471 		"/>
		<rect x="97" y="73.999" fill="#FED677" width="27" height="9"/>
		<rect x="97" y="113.999" fill="#FED677" width="27" height="9"/>
		<polygon fill="#E1AA2A" points="83,41.999 104,41.999 104,174.38 83,181.471 		"/>
		<rect x="115" y="80.999" fill="#FED677" width="9" height="42"/>
		<circle fill="#FFFFFF" cx="76.781" cy="46.656" r="16.887"/>
		<circle fill="#FFFFFF" cx="49.762" cy="35.398" r="16.887"/>
		<circle fill="#FFFFFF" cx="94.794" cy="33.146" r="16.887"/>
		<circle fill="#FFFFFF" cx="18.24" cy="28.644" r="16.887"/>
		<circle fill="#FFFFFF" cx="60.457" cy="47.219" r="9.569"/>
		<circle fill="#FFFFFF" cx="31.187" cy="35.961" r="9.569"/>
		<circle fill="#FFFFFF" cx="33.438" cy="20.2" r="9.569"/>
		<circle fill="#FFFFFF" cx="51.451" cy="24.703" r="9.569"/>
		<circle fill="#FFFFFF" cx="71.715" cy="29.206" r="9.569"/>
		<circle fill="#FFFFFF" cx="62.709" cy="22.452" r="9.569"/>
		<line fill="none" stroke="#FFEFCF" stroke-width="2" stroke-miterlimit="10" x1="39" y1="68.999" x2="39" y2="165.999"/>
		<line fill="none" stroke="#FED677" stroke-width="2" stroke-miterlimit="10" x1="93" y1="75.999" x2="93" y2="156.999"/>
		<line fill="none" stroke="#FED677" stroke-width="2" stroke-miterlimit="10" x1="17" y1="75.999" x2="17" y2="156.999"/>
		<line fill="none" stroke="#FFEFCF" stroke-width="2" stroke-miterlimit="10" x1="73" y1="68.999" x2="73" y2="165.999"/>
		<line fill="none" stroke="#FFEFCF" stroke-width="2" stroke-miterlimit="10" x1="57" y1="68.999" x2="57" y2="165.999"/>
	</g>
</g>
</svg>
