<?xml version="1.0" encoding="utf-8"?>
<!-- Generator: Adobe Illustrator 16.0.0, SVG Export Plug-In . SVG Version: 6.00 Build 0)  -->
<!DOCTYPE svg PUBLIC "-//W3C//DTD SVG 1.1//EN" "http://www.w3.org/Graphics/SVG/1.1/DTD/svg11.dtd">
<svg version="1.1" id="Layer_1" xmlns="http://www.w3.org/2000/svg" xmlns:xlink="http://www.w3.org/1999/xlink" x="0px" y="0px"
	 width="204.369px" height="50px" viewBox="0 0 204.369 50" enable-background="new 0 0 204.369 50" xml:space="preserve">
<g>
	<g>
		<rect x="41.861" y="10.918" fill="#FED677" width="13.243" height="35.945"/>
		<polygon fill="#E1AA2A" points="41.861,10.918 36.187,10.918 36.187,44.734 41.861,46.534 		"/>
		<polygon fill="#E1AA2A" points="55.104,10.918 60.78,10.918 60.78,44.734 55.104,46.534 		"/>
		<rect x="58.889" y="19.432" fill="#E1AA2A" width="7.567" height="1.892"/>
		<rect x="63.618" y="21.323" fill="#E1AA2A" width="2.838" height="9.459"/>
		<rect x="58.889" y="29.837" fill="#E1AA2A" width="7.567" height="0.945"/>
		<circle fill="#FFFFFF" cx="54.127" cy="12.288" r="4.29"/>
		<circle fill="#FFFFFF" cx="47.264" cy="9.428" r="4.29"/>
		<circle fill="#FFFFFF" cx="58.703" cy="8.856" r="4.29"/>
		<circle fill="#FFFFFF" cx="39.257" cy="7.712" r="4.29"/>
		<circle fill="#FFFFFF" cx="49.98" cy="12.431" r="2.431"/>
		<circle fill="#FFFFFF" cx="42.546" cy="9.572" r="2.431"/>
		<circle fill="#FFFFFF" cx="43.118" cy="5.568" r="2.431"/>
		<circle fill="#FFFFFF" cx="47.693" cy="6.711" r="2.431"/>
		<circle fill="#FFFFFF" cx="52.841" cy="7.855" r="2.431"/>
		<circle fill="#FFFFFF" cx="50.553" cy="6.139" r="2.431"/>
		
			<line fill="none" stroke="#FFEFCF" stroke-width="0.9459" stroke-miterlimit="10" x1="45.173" y1="18.485" x2="45.173" y2="42.134"/>
		
			<line fill="none" stroke="#FED677" stroke-width="0.9459" stroke-miterlimit="10" x1="57.47" y1="19.432" x2="57.47" y2="40.242"/>
		
			<line fill="none" stroke="#FED677" stroke-width="0.9459" stroke-miterlimit="10" x1="39.497" y1="19.432" x2="39.497" y2="40.242"/>
		
			<line fill="none" stroke="#FFEFCF" stroke-width="0.9459" stroke-miterlimit="10" x1="52.74" y1="18.485" x2="52.74" y2="42.134"/>
		
			<line fill="none" stroke="#FFEFCF" stroke-width="0.9459" stroke-miterlimit="10" x1="48.956" y1="18.485" x2="48.956" y2="42.134"/>
	</g>
	<g>
		<path fill="#666666" stroke="#666666" stroke-width="0.9367" stroke-miterlimit="10" d="M95.958,24.959v17.674h-1.383V27.28
			l-6.917,10.573L80.755,27.28v15.353h-1.383V24.959h1.518l6.769,10.362l6.78-10.362H95.958z"/>
		<path fill="#666666" stroke="#666666" stroke-width="0.9367" stroke-miterlimit="10" d="M116.113,33.754
			c0,2.306-0.786,4.306-2.358,6.002c-1.573,1.679-3.499,2.61-5.779,2.792v0.986h-1.384v-0.986c-2.28-0.182-4.204-1.113-5.768-2.792
			c-1.58-1.696-2.371-3.696-2.371-6.002c0-2.313,0.79-4.318,2.371-6.013c1.563-1.682,3.487-2.612,5.768-2.792v-0.987h1.384v0.987
			c2.28,0.18,4.206,1.115,5.779,2.803S116.113,31.438,116.113,33.754z M99.836,33.754c0,1.926,0.65,3.604,1.951,5.025
			c1.3,1.416,2.901,2.211,4.805,2.385V26.33c-1.903,0.174-3.505,0.967-4.805,2.385C100.486,30.138,99.836,31.819,99.836,33.754z
			 M107.976,41.164c1.901-0.174,3.503-0.967,4.804-2.385c1.301-1.424,1.951-3.1,1.951-5.025c0-1.935-0.65-3.614-1.951-5.039
			c-1.301-1.417-2.902-2.211-4.804-2.384V41.164z"/>
		<path fill="#666666" stroke="#666666" stroke-width="0.9367" stroke-miterlimit="10" d="M133.837,24.936v17.697h-1.372v-4.078
			l-12.462-12.003v16.081h-1.382V24.936h1.678l12.164,11.696V24.936H133.837z"/>
		<path fill="#666666" stroke="#666666" stroke-width="0.9367" stroke-miterlimit="10" d="M145.952,39.706
			c0.683,0.74,1.18,1.172,1.494,1.297c0.304,0.124,1.058,0.185,2.26,0.185v1.371c-1.449,0-2.392-0.091-2.828-0.272
			c-0.452-0.18-1.11-0.744-1.975-1.691l-5.237-6.693l-1.976,1.84v6.892h-1.384V24.947h1.384v8.905l9.559-8.905h1.976l-0.234,0.184
			l-8.312,7.832L145.952,39.706z"/>
		<path fill="#666666" stroke="#666666" stroke-width="0.9367" stroke-miterlimit="10" d="M152.868,42.633v-1.384h8.337
			c1.102,0,2.023-0.354,2.766-1.062c0.749-0.699,1.124-1.572,1.124-2.62c0-1.062-0.38-1.958-1.138-2.691
			c-0.749-0.727-1.667-1.085-2.752-1.085h-3.743c-1.977,0-3.404-0.442-4.285-1.321c-0.667-0.667-1.001-1.561-1.001-2.68
			c0-1.398,0.498-2.558,1.494-3.472c0.996-0.904,2.26-1.359,3.792-1.359h8.323v1.37h-8.323c-1.145,0-2.083,0.321-2.816,0.965
			c-0.726,0.643-1.086,1.475-1.086,2.496c0,0.749,0.214,1.324,0.643,1.728c0.616,0.602,1.705,0.901,3.26,0.901h3.743
			c1.473,0,2.72,0.493,3.741,1.481c1.021,0.998,1.531,2.221,1.531,3.667c0,1.441-0.507,2.644-1.52,3.606
			c-1.011,0.974-2.265,1.458-3.753,1.458h-8.337V42.633z"/>
	</g>
	<g>
		<path fill="#FFEFCF" d="M95.35,24.444v17.675h-1.383V26.768l-6.917,10.57l-6.903-10.571v15.351h-1.383V24.444h1.519l6.768,10.362
			l6.78-10.362H95.35z"/>
		<path fill="#FFEFCF" d="M115.504,33.238c0,2.307-0.785,4.307-2.359,6.002c-1.572,1.68-3.497,2.611-5.777,2.792v0.986h-1.383
			v-0.986c-2.281-0.181-4.205-1.112-5.769-2.792c-1.58-1.695-2.371-3.694-2.371-6.002c0-2.313,0.79-4.317,2.371-6.013
			c1.563-1.68,3.487-2.61,5.769-2.792v-0.987h1.383v0.987c2.28,0.181,4.205,1.115,5.777,2.803
			C114.719,28.924,115.504,30.923,115.504,33.238z M99.227,33.238c0,1.927,0.651,3.603,1.952,5.025
			c1.301,1.417,2.902,2.211,4.805,2.385V25.815c-1.902,0.173-3.504,0.968-4.805,2.385C99.878,29.624,99.227,31.304,99.227,33.238z
			 M107.367,40.648c1.9-0.174,3.503-0.967,4.804-2.385c1.301-1.425,1.951-3.099,1.951-5.025c0-1.935-0.651-3.614-1.951-5.038
			c-1.301-1.417-2.902-2.212-4.804-2.385V40.648z"/>
		<path fill="#FFEFCF" d="M133.228,24.419v17.698h-1.371v-4.076l-12.462-12.005v16.081h-1.383V24.419h1.679l12.164,11.695V24.419
			H133.228z"/>
		<path fill="#FFEFCF" d="M145.341,39.19c0.686,0.741,1.183,1.174,1.495,1.297c0.304,0.124,1.058,0.185,2.262,0.185v1.371
			c-1.449,0-2.393-0.09-2.829-0.271c-0.452-0.18-1.11-0.744-1.975-1.692l-5.237-6.692l-1.976,1.839v6.892h-1.384V24.433h1.384v8.904
			l9.557-8.905h1.978l-0.235,0.186l-8.312,7.829L145.341,39.19z"/>
		<path fill="#FFEFCF" d="M152.258,42.117v-1.384h8.336c1.104,0,2.026-0.353,2.766-1.061c0.75-0.699,1.124-1.574,1.124-2.62
			c0-1.062-0.377-1.958-1.135-2.692c-0.75-0.726-1.669-1.086-2.755-1.086h-3.743c-1.975,0-3.404-0.441-4.283-1.322
			c-0.668-0.665-1.002-1.559-1.002-2.679c0-1.398,0.498-2.556,1.494-3.472c0.998-0.905,2.26-1.358,3.791-1.358h8.325v1.371h-8.325
			c-1.144,0-2.082,0.321-2.816,0.965c-0.725,0.641-1.085,1.475-1.085,2.494c0,0.751,0.215,1.324,0.643,1.729
			c0.617,0.602,1.705,0.901,3.259,0.901h3.743c1.474,0,2.722,0.493,3.743,1.481c1.021,0.996,1.529,2.219,1.529,3.667
			c0,1.441-0.506,2.644-1.518,3.606c-1.012,0.97-2.264,1.458-3.755,1.458H152.258L152.258,42.117z"/>
	</g>
	<g>
		<path fill="#666666" stroke="#666666" stroke-width="0.9367" stroke-miterlimit="10" d="M86.138,13.069
			c-0.156,0.187-0.325,0.372-0.506,0.56c-0.196,0.203-0.406,0.379-0.63,0.529c-0.114,0.078-0.245,0.153-0.396,0.225v4.69h-0.879
			v-4.426c-0.601,0.094-1.21,0.048-1.827-0.14c-0.384-0.119-0.763-0.256-1.135-0.412c-0.343-0.13-0.689-0.252-1.043-0.365
			c-0.809-0.255-1.428-0.213-1.858,0.124c-0.16,0.13-0.27,0.259-0.326,0.389c-0.083,0.202-0.125,0.539-0.125,1.011v3.818h-0.87
			V7.938h0.87v5.179c0.378-0.271,0.813-0.404,1.307-0.404c0.44,0,0.863,0.063,1.268,0.193c0.363,0.115,0.729,0.241,1.096,0.382
			c0.358,0.15,0.717,0.279,1.074,0.389c0.332,0.098,0.682,0.147,1.05,0.147c0.171,0,0.344-0.019,0.521-0.054V7.938h0.879v5.436
			c0.151-0.114,0.286-0.231,0.405-0.351c0.171-0.177,0.323-0.347,0.459-0.513L86.138,13.069z"/>
		<path fill="#666666" stroke="#666666" stroke-width="0.9367" stroke-miterlimit="10" d="M98.828,13.481
			c0,1.451-0.495,2.711-1.485,3.779c-0.99,1.058-2.203,1.643-3.639,1.757v0.622h-0.872v-0.622c-1.436-0.114-2.646-0.699-3.631-1.757
			c-0.995-1.068-1.494-2.328-1.494-3.779c0-1.457,0.498-2.719,1.494-3.786c0.985-1.058,2.195-1.644,3.631-1.757V7.315h0.872v0.622
			c1.436,0.113,2.648,0.702,3.639,1.765C98.332,10.765,98.828,12.024,98.828,13.481z M88.579,13.481
			c0,1.214,0.409,2.269,1.228,3.165c0.818,0.893,1.827,1.392,3.024,1.501V8.809c-1.197,0.108-2.206,0.609-3.024,1.5
			C88.988,11.206,88.579,12.263,88.579,13.481z M93.703,18.147c1.197-0.109,2.206-0.608,3.024-1.501
			c0.819-0.896,1.229-1.951,1.229-3.165c0-1.219-0.409-2.275-1.229-3.173c-0.818-0.891-1.827-1.393-3.024-1.5V18.147z"/>
		<path fill="#666666" stroke="#666666" stroke-width="0.9367" stroke-miterlimit="10" d="M110.851,7.945v11.128h-0.87V9.406
			l-4.354,6.656l-4.348-6.656v9.666h-0.87V7.945h0.956l4.262,6.523l4.27-6.523H110.851z"/>
		<path fill="#666666" stroke="#666666" stroke-width="0.9367" stroke-miterlimit="10" d="M114.441,8.793v3.312
			c0.29,0.026,0.564,0.091,0.824,0.194c0.3,0.119,0.599,0.249,0.894,0.39c0.279,0.145,0.561,0.27,0.842,0.372
			c0.496,0.198,0.931,0.214,1.306,0.047c0.165-0.066,0.311-0.153,0.435-0.256c0.135-0.119,0.266-0.257,0.39-0.412
			c0.129-0.166,0.251-0.335,0.365-0.505l0.732,0.48c-0.127,0.182-0.261,0.368-0.407,0.561c-0.166,0.207-0.336,0.386-0.513,0.536
			c-0.196,0.166-0.416,0.301-0.661,0.405c-0.258,0.108-0.542,0.162-0.854,0.162c-0.383,0-0.752-0.067-1.103-0.202
			c-0.307-0.113-0.611-0.252-0.919-0.412c-0.272-0.124-0.548-0.246-0.823-0.365c-0.145-0.053-0.314-0.091-0.505-0.117v5.219h6.15
			v0.871h-7.031v-5.763c-0.156,0.196-0.274,0.392-0.357,0.583l-0.801-0.357c0.149-0.336,0.347-0.645,0.591-0.925
			c0.156-0.171,0.344-0.304,0.567-0.396V7.922h7.029v0.871H114.441z"/>
		<path fill="#666666" stroke="#666666" stroke-width="0.9367" stroke-miterlimit="10" d="M130.763,11.258
			c0,0.851-0.311,1.594-0.933,2.231c0.622,0.638,0.933,1.381,0.933,2.231c0,0.923-0.358,1.713-1.073,2.371
			c-0.716,0.652-1.574,0.98-2.582,0.98h-4.526v-0.008h-0.436V7.914h0.436V7.905h4.526c1.004,0,1.866,0.327,2.582,0.98
			C130.404,9.544,130.763,10.334,130.763,11.258z M129.893,11.258c0-0.686-0.273-1.268-0.816-1.75
			c-0.545-0.487-1.201-0.73-1.967-0.73h-4.091v3.592h4.091c0.741,0,1.42,0.189,2.035,0.567
			C129.643,12.46,129.893,11.901,129.893,11.258z M128.314,13.489c-0.382-0.166-0.785-0.249-1.203-0.249h-4.091v0.498h4.091
			C127.527,13.738,127.931,13.655,128.314,13.489z M127.109,18.202c0.768,0,1.422-0.243,1.967-0.73
			c0.543-0.482,0.816-1.065,0.816-1.75c0-0.644-0.251-1.202-0.748-1.681c-0.615,0.379-1.294,0.568-2.035,0.568h-4.091v3.593H127.109
			z"/>
		<path fill="#666666" stroke="#666666" stroke-width="0.9367" stroke-miterlimit="10" d="M139.389,17.198
			c0.439,0.482,0.759,0.766,0.955,0.848c0.197,0.077,0.675,0.116,1.432,0.116v0.87c-0.912,0-1.505-0.057-1.78-0.171
			c-0.285-0.119-0.7-0.477-1.242-1.073l-2.963-3.157h-2.606v4.44h-0.863V7.953h0.445V7.945h4.502c1.004,0,1.863,0.326,2.574,0.979
			c0.71,0.653,1.065,1.439,1.065,2.356c0,0.923-0.355,1.714-1.065,2.373c-0.711,0.652-1.568,0.979-2.574,0.979h-0.296
			L139.389,17.198z M133.182,13.762h4.082c0.764,0,1.414-0.241,1.951-0.724c0.549-0.487,0.824-1.073,0.824-1.758
			c0-0.674-0.275-1.254-0.824-1.741c-0.537-0.482-1.189-0.724-1.951-0.724h-4.082V13.762z"/>
		<path fill="#666666" stroke="#666666" stroke-width="0.9367" stroke-miterlimit="10" d="M145.366,8.793v3.312
			c0.291,0.026,0.566,0.091,0.825,0.194c0.299,0.119,0.599,0.249,0.894,0.39c0.279,0.145,0.56,0.27,0.839,0.372
			c0.497,0.198,0.934,0.214,1.308,0.047c0.167-0.066,0.31-0.153,0.436-0.256c0.136-0.119,0.265-0.257,0.388-0.412
			c0.131-0.166,0.253-0.335,0.367-0.505l0.729,0.48c-0.125,0.182-0.259,0.368-0.404,0.561c-0.166,0.207-0.337,0.386-0.514,0.536
			c-0.198,0.166-0.417,0.301-0.66,0.405c-0.26,0.108-0.545,0.162-0.855,0.162c-0.384,0-0.752-0.067-1.104-0.202
			c-0.305-0.113-0.611-0.252-0.918-0.412c-0.274-0.124-0.549-0.246-0.824-0.365c-0.144-0.053-0.312-0.091-0.505-0.117v5.219h6.151
			v0.871h-7.03v-5.763c-0.155,0.196-0.274,0.392-0.357,0.583l-0.803-0.357c0.15-0.336,0.348-0.645,0.592-0.925
			c0.156-0.171,0.344-0.304,0.568-0.396V7.922h7.03v0.871H145.366z"/>
		<path fill="#666666" stroke="#666666" stroke-width="0.9367" stroke-miterlimit="10" d="M169.402,7.938l-5,11.135h-1.12
			l-2.044-4.565l-2.054,4.565h-1.112l-4.999-11.135h0.957l4.602,10.256l2.123-4.743l-2.472-5.513h0.956l1.999,4.447l1.99-4.447
			h0.957l-2.473,5.513l2.131,4.743l4.603-10.256H169.402z"/>
	</g>
	<g>
		<path fill="#FFEFCF" d="M85.48,12.694c-0.154,0.187-0.323,0.373-0.505,0.561c-0.196,0.202-0.407,0.378-0.63,0.528
			c-0.114,0.078-0.246,0.153-0.396,0.226v4.688H83.07v-4.424c-0.601,0.093-1.21,0.047-1.827-0.141
			c-0.384-0.119-0.763-0.256-1.136-0.412c-0.343-0.129-0.689-0.252-1.043-0.365c-0.809-0.254-1.429-0.213-1.857,0.124
			c-0.161,0.13-0.27,0.26-0.326,0.389c-0.083,0.202-0.125,0.539-0.125,1.011v3.817h-0.87V7.563h0.87v5.179
			c0.378-0.27,0.813-0.404,1.307-0.404c0.44,0,0.863,0.064,1.267,0.195c0.364,0.114,0.729,0.241,1.097,0.38
			c0.357,0.15,0.716,0.28,1.073,0.39c0.332,0.099,0.683,0.147,1.051,0.147c0.171,0,0.344-0.018,0.521-0.055V7.563h0.879v5.435
			c0.15-0.114,0.286-0.23,0.404-0.35c0.171-0.176,0.324-0.348,0.459-0.513L85.48,12.694z"/>
		<path fill="#FFEFCF" d="M98.171,13.107c0,1.451-0.494,2.711-1.484,3.778c-0.99,1.058-2.204,1.644-3.641,1.758v0.622h-0.87v-0.622
			c-1.436-0.114-2.646-0.7-3.631-1.758c-0.995-1.067-1.494-2.327-1.494-3.778c0-1.457,0.498-2.72,1.494-3.787
			c0.984-1.058,2.195-1.644,3.631-1.757V6.94h0.87v0.623c1.437,0.113,2.65,0.702,3.641,1.765S98.171,11.65,98.171,13.107z
			 M87.923,13.107c0,1.213,0.41,2.267,1.229,3.164c0.818,0.892,1.827,1.392,3.024,1.501V8.434c-1.197,0.108-2.206,0.609-3.024,1.501
			C88.333,10.831,87.923,11.889,87.923,13.107z M93.047,17.772c1.198-0.109,2.206-0.609,3.025-1.501
			c0.819-0.897,1.229-1.951,1.229-3.164c0-1.219-0.409-2.276-1.229-3.173c-0.819-0.892-1.827-1.393-3.025-1.501V17.772z"/>
		<path fill="#FFEFCF" d="M110.194,7.57v11.127h-0.872V9.032l-4.355,6.656l-4.347-6.656v9.665h-0.87V7.57h0.956l4.262,6.524
			l4.27-6.524H110.194z"/>
		<path fill="#FFEFCF" d="M113.786,8.417v3.312c0.29,0.025,0.564,0.091,0.824,0.194c0.301,0.119,0.599,0.249,0.894,0.39
			c0.281,0.145,0.56,0.27,0.841,0.373c0.497,0.196,0.933,0.212,1.307,0.046c0.165-0.067,0.311-0.152,0.435-0.257
			c0.136-0.119,0.266-0.256,0.389-0.412c0.13-0.165,0.252-0.335,0.366-0.506l0.729,0.482c-0.124,0.182-0.259,0.368-0.402,0.56
			c-0.168,0.209-0.338,0.388-0.514,0.537c-0.196,0.165-0.417,0.301-0.662,0.403c-0.258,0.109-0.543,0.163-0.854,0.163
			c-0.385,0-0.752-0.066-1.105-0.202c-0.306-0.113-0.61-0.251-0.917-0.412c-0.275-0.125-0.551-0.246-0.824-0.365
			c-0.145-0.052-0.313-0.091-0.506-0.117v5.218h6.15v0.87h-7.03v-5.762c-0.155,0.197-0.275,0.392-0.356,0.584l-0.802-0.357
			c0.15-0.337,0.348-0.646,0.591-0.925c0.156-0.172,0.345-0.304,0.569-0.396V7.547h7.029v0.87H113.786z"/>
		<path fill="#FFEFCF" d="M130.107,10.882c0,0.851-0.311,1.595-0.932,2.231c0.621,0.638,0.932,1.383,0.932,2.232
			c0,0.923-0.357,1.714-1.072,2.371c-0.717,0.652-1.576,0.979-2.581,0.979h-4.526v-0.008h-0.434V7.539h0.434V7.531h4.526
			c1.004,0,1.866,0.326,2.581,0.979C129.75,9.169,130.107,9.96,130.107,10.882z M129.237,10.882c0-0.684-0.272-1.267-0.817-1.75
			c-0.543-0.486-1.199-0.729-1.966-0.729h-4.09v3.593h4.09c0.741,0,1.421,0.188,2.036,0.566
			C128.987,12.085,129.237,11.525,129.237,10.882z M127.658,13.114c-0.384-0.165-0.785-0.248-1.204-0.248h-4.09v0.497h4.09
			C126.873,13.363,127.274,13.281,127.658,13.114z M126.454,17.827c0.769,0,1.423-0.243,1.966-0.731
			c0.545-0.482,0.817-1.065,0.817-1.75c0-0.642-0.25-1.202-0.747-1.679c-0.615,0.379-1.295,0.567-2.036,0.567h-4.09v3.593H126.454z"
			/>
		<path fill="#FFEFCF" d="M138.73,16.823c0.441,0.482,0.76,0.766,0.957,0.848c0.197,0.079,0.674,0.117,1.431,0.117v0.871
			c-0.912,0-1.505-0.058-1.78-0.172c-0.285-0.119-0.699-0.477-1.244-1.073l-2.962-3.157h-2.604v4.44h-0.865V7.578h0.445V7.57h4.503
			c1.005,0,1.862,0.327,2.574,0.979c0.709,0.653,1.066,1.438,1.066,2.355c0,0.924-0.357,1.715-1.066,2.372
			c-0.712,0.652-1.567,0.979-2.574,0.979h-0.294L138.73,16.823z M132.527,13.387h4.082c0.762,0,1.412-0.241,1.951-0.723
			c0.549-0.487,0.824-1.074,0.824-1.759c0-0.673-0.275-1.254-0.824-1.741c-0.539-0.482-1.189-0.724-1.951-0.724h-4.082V13.387z"/>
		<path fill="#FFEFCF" d="M144.711,8.417v3.312c0.29,0.025,0.564,0.091,0.824,0.194c0.299,0.119,0.599,0.249,0.894,0.39
			c0.278,0.145,0.561,0.27,0.84,0.373c0.496,0.196,0.933,0.212,1.308,0.046c0.166-0.067,0.311-0.152,0.435-0.257
			c0.136-0.119,0.264-0.256,0.39-0.412c0.129-0.165,0.251-0.335,0.365-0.506l0.729,0.482c-0.125,0.182-0.258,0.368-0.405,0.56
			c-0.165,0.209-0.335,0.388-0.514,0.537c-0.196,0.165-0.414,0.301-0.66,0.403c-0.259,0.109-0.543,0.163-0.854,0.163
			c-0.384,0-0.752-0.066-1.104-0.202c-0.305-0.113-0.612-0.251-0.919-0.412c-0.273-0.125-0.548-0.246-0.823-0.365
			c-0.145-0.052-0.312-0.091-0.505-0.117v5.218h6.15v0.87h-7.029v-5.762c-0.155,0.197-0.275,0.392-0.357,0.584l-0.802-0.357
			c0.15-0.337,0.348-0.646,0.591-0.925c0.156-0.172,0.345-0.304,0.568-0.396V7.547h7.029v0.87H144.711z"/>
		<path fill="#FFEFCF" d="M168.747,7.563l-4.999,11.134h-1.122l-2.045-4.564l-2.053,4.564h-1.112l-5-11.134h0.958l4.603,10.256
			l2.123-4.742l-2.473-5.514h0.957l1.997,4.447l1.99-4.447h0.958l-2.473,5.514l2.133,4.742l4.601-10.256H168.747z"/>
	</g>
</g>
</svg>
