<?xml version="1.0" encoding="utf-8"?>
<!-- Generator: Adobe Illustrator 16.0.0, SVG Export Plug-In . SVG Version: 6.00 Build 0)  -->
<!DOCTYPE svg PUBLIC "-//W3C//DTD SVG 1.1//EN" "http://www.w3.org/Graphics/SVG/1.1/DTD/svg11.dtd">
<svg version="1.1" id="Layer_1" xmlns="http://www.w3.org/2000/svg" xmlns:xlink="http://www.w3.org/1999/xlink" x="0px" y="0px"
	 width="204.369px" height="50px" viewBox="0 0 204.369 50" enable-background="new 0 0 204.369 50" xml:space="preserve">
<g>
	<rect x="38" y="11" fill="#FED677" width="14" height="38"/>
	<polygon fill="#E1AA2A" points="38,11 32,11 32,46.749 38,48.653 	"/>
	<polygon fill="#E1AA2A" points="52,11 58,11 58,46.749 52,48.653 	"/>
	<rect x="56" y="20" fill="#E1AA2A" width="8" height="2"/>
	<rect x="61" y="22" fill="#E1AA2A" width="3" height="10"/>
	<rect x="56" y="31" fill="#E1AA2A" width="8" height="1"/>
	<circle fill="#FFFFFF" cx="50.967" cy="12.448" r="4.535"/>
	<circle fill="#FFFFFF" cx="43.711" cy="9.425" r="4.535"/>
	<circle fill="#FFFFFF" cx="55.804" cy="8.82" r="4.535"/>
	<circle fill="#FFFFFF" cx="35.246" cy="7.611" r="4.535"/>
	<circle fill="#FFFFFF" cx="46.583" cy="12.6" r="2.57"/>
	<circle fill="#FFFFFF" cx="38.723" cy="9.577" r="2.57"/>
	<circle fill="#FFFFFF" cx="39.328" cy="5.344" r="2.57"/>
	<circle fill="#FFFFFF" cx="44.165" cy="6.553" r="2.57"/>
	<circle fill="#FFFFFF" cx="49.607" cy="7.762" r="2.57"/>
	<circle fill="#FFFFFF" cx="47.188" cy="5.948" r="2.57"/>
	<line fill="#FFEFCF" stroke="#FFEFCF" stroke-miterlimit="10" x1="41.5" y1="19" x2="41.5" y2="44"/>
	<line fill="#FED677" stroke="#FED677" stroke-miterlimit="10" x1="55.5" y1="20" x2="55.5" y2="42"/>
	<line fill="#FED677" stroke="#FED677" stroke-miterlimit="10" x1="35.5" y1="20" x2="35.5" y2="42"/>
	<line fill="#FFEFCF" stroke="#FFEFCF" stroke-miterlimit="10" x1="49.5" y1="19" x2="49.5" y2="44"/>
	<line fill="#FFEFCF" stroke="#FFEFCF" stroke-miterlimit="10" x1="46.5" y1="19" x2="46.5" y2="44"/>
</g>
<g>
	<path fill="#666666" stroke="#666666" stroke-width="0.9903" stroke-miterlimit="10" d="M95.189,25.844v18.684h-1.462V28.298
		l-7.312,11.177l-7.298-11.177v16.229h-1.462V25.844h1.605l7.155,10.954l7.168-10.954H95.189z"/>
	<path fill="#666666" stroke="#666666" stroke-width="0.9903" stroke-miterlimit="10" d="M116.497,35.141
		c0,2.437-0.832,4.552-2.494,6.345c-1.663,1.775-3.699,2.759-6.11,2.951v1.044h-1.462v-1.044c-2.411-0.192-4.444-1.176-6.097-2.951
		c-1.671-1.793-2.507-3.908-2.507-6.345c0-2.446,0.835-4.566,2.507-6.358c1.653-1.777,3.686-2.76,6.097-2.951v-1.044h1.462v1.044
		c2.411,0.191,4.447,1.179,6.11,2.963C115.666,30.579,116.497,32.694,116.497,35.141z M99.289,35.141
		c0,2.036,0.687,3.808,2.062,5.313c1.375,1.497,3.068,2.337,5.079,2.52V27.293c-2.011,0.183-3.704,1.022-5.079,2.521
		C99.976,31.319,99.289,33.095,99.289,35.141z M107.893,42.974c2.01-0.183,3.703-1.022,5.079-2.52
		c1.375-1.506,2.063-3.277,2.063-5.313c0-2.046-0.688-3.821-2.063-5.327c-1.375-1.498-3.068-2.338-5.079-2.521V42.974z"/>
	<path fill="#666666" stroke="#666666" stroke-width="0.9903" stroke-miterlimit="10" d="M135.233,25.818v18.709h-1.45v-4.309
		l-13.174-12.69v16.999h-1.462V25.818h1.775l12.86,12.365V25.818H135.233z"/>
	<path fill="#666666" stroke="#666666" stroke-width="0.9903" stroke-miterlimit="10" d="M148.041,41.434
		c0.722,0.782,1.248,1.239,1.58,1.37c0.321,0.131,1.118,0.196,2.389,0.196v1.449c-1.532,0-2.528-0.096-2.99-0.288
		c-0.479-0.19-1.174-0.787-2.088-1.788l-5.537-7.076l-2.088,1.945v7.285h-1.463V25.831h1.463v9.414l10.105-9.414h2.089l-0.248,0.195
		l-8.787,8.278L148.041,41.434z"/>
	<path fill="#666666" stroke="#666666" stroke-width="0.9903" stroke-miterlimit="10" d="M155.353,44.527v-1.462h8.813
		c1.165,0,2.14-0.374,2.924-1.123c0.792-0.74,1.188-1.662,1.188-2.769c0-1.123-0.401-2.071-1.202-2.846
		c-0.792-0.766-1.762-1.148-2.91-1.148h-3.957c-2.089,0-3.599-0.466-4.53-1.397c-0.705-0.705-1.058-1.649-1.058-2.833
		c0-1.479,0.527-2.703,1.579-3.669c1.054-0.957,2.39-1.437,4.009-1.437h8.8v1.449h-8.8c-1.21,0-2.202,0.34-2.977,1.019
		c-0.766,0.679-1.148,1.559-1.148,2.638c0,0.792,0.226,1.401,0.678,1.827c0.653,0.636,1.803,0.953,3.447,0.953h3.957
		c1.557,0,2.876,0.522,3.955,1.567c1.079,1.053,1.619,2.346,1.619,3.877c0,1.524-0.536,2.794-1.606,3.812
		c-1.069,1.028-2.394,1.541-3.968,1.541H155.353z"/>
</g>
<g>
	<path fill="#FFEFCF" d="M94.546,25.3v18.684h-1.462V27.754L85.772,38.93l-7.298-11.176v16.229h-1.462V25.3h1.605l7.155,10.954
		L92.94,25.3H94.546z"/>
	<path fill="#FFEFCF" d="M115.853,34.596c0,2.438-0.831,4.553-2.494,6.346c-1.663,1.775-3.699,2.759-6.11,2.95v1.044h-1.462v-1.044
		c-2.411-0.191-4.444-1.175-6.097-2.95c-1.671-1.793-2.507-3.908-2.507-6.346c0-2.446,0.835-4.565,2.507-6.358
		c1.653-1.775,3.686-2.759,6.097-2.951v-1.044h1.462v1.044c2.411,0.191,4.447,1.179,6.11,2.963
		C115.022,30.035,115.853,32.149,115.853,34.596z M98.645,34.596c0,2.037,0.688,3.808,2.063,5.313
		c1.375,1.497,3.068,2.337,5.079,2.521V26.749c-2.011,0.183-3.704,1.022-5.079,2.52C99.333,30.775,98.645,32.551,98.645,34.596z
		 M107.25,42.43c2.01-0.184,3.703-1.023,5.079-2.521c1.375-1.506,2.063-3.276,2.063-5.313c0-2.045-0.688-3.82-2.063-5.327
		c-1.375-1.497-3.068-2.337-5.079-2.52V42.43z"/>
	<path fill="#FFEFCF" d="M134.589,25.273v18.71h-1.45v-4.309l-13.173-12.691v17h-1.462v-18.71h1.775l12.859,12.364V25.273H134.589z"
		/>
	<path fill="#FFEFCF" d="M147.396,40.889c0.723,0.783,1.249,1.24,1.58,1.371c0.321,0.13,1.118,0.195,2.39,0.195v1.45
		c-1.532,0-2.529-0.096-2.991-0.288c-0.479-0.19-1.174-0.787-2.088-1.789l-5.536-7.075l-2.089,1.944v7.286h-1.463V25.287h1.463V34.7
		l10.105-9.414h2.089l-0.247,0.196l-8.788,8.277L147.396,40.889z"/>
	<path fill="#FFEFCF" d="M154.708,43.983v-1.463h8.813c1.166,0,2.141-0.374,2.924-1.122c0.793-0.74,1.188-1.663,1.188-2.769
		c0-1.123-0.4-2.071-1.201-2.847c-0.793-0.766-1.763-1.148-2.911-1.148h-3.957c-2.089,0-3.599-0.466-4.529-1.397
		c-0.706-0.705-1.059-1.649-1.059-2.833c0-1.479,0.527-2.702,1.58-3.669c1.054-0.957,2.389-1.436,4.008-1.436h8.8v1.449h-8.8
		c-1.209,0-2.202,0.339-2.977,1.019c-0.766,0.678-1.148,1.558-1.148,2.637c0,0.793,0.227,1.401,0.679,1.828
		c0.652,0.636,1.802,0.953,3.446,0.953h3.957c1.557,0,2.877,0.522,3.956,1.567c1.079,1.053,1.618,2.346,1.618,3.877
		c0,1.523-0.535,2.794-1.606,3.812c-1.069,1.027-2.393,1.541-3.968,1.541H154.708z"/>
</g>
<g>
	<path fill="#666666" stroke="#666666" stroke-width="0.9903" stroke-miterlimit="10" d="M84.807,13.274
		c-0.165,0.197-0.343,0.394-0.534,0.592c-0.208,0.214-0.43,0.4-0.666,0.559c-0.121,0.083-0.26,0.162-0.419,0.238v4.958h-0.929
		v-4.678c-0.636,0.099-1.28,0.05-1.932-0.148c-0.406-0.126-0.806-0.271-1.2-0.436c-0.362-0.137-0.729-0.266-1.102-0.386
		c-0.855-0.269-1.51-0.225-1.965,0.131c-0.17,0.137-0.285,0.274-0.345,0.411c-0.088,0.214-0.132,0.57-0.132,1.069v4.036h-0.92V7.849
		h0.92v5.474c0.4-0.285,0.86-0.427,1.381-0.427c0.466,0,0.913,0.068,1.34,0.205c0.384,0.121,0.77,0.255,1.159,0.403
		c0.379,0.159,0.757,0.296,1.135,0.411c0.351,0.104,0.721,0.156,1.11,0.156c0.181,0,0.364-0.019,0.551-0.057V7.849h0.929v5.746
		c0.159-0.121,0.302-0.244,0.428-0.37c0.181-0.187,0.342-0.367,0.485-0.542L84.807,13.274z"/>
	<path fill="#666666" stroke="#666666" stroke-width="0.9903" stroke-miterlimit="10" d="M98.223,13.71
		c0,1.534-0.523,2.866-1.57,3.995c-1.047,1.118-2.329,1.737-3.847,1.858v0.657h-0.921v-0.657c-1.518-0.121-2.797-0.74-3.839-1.858
		c-1.052-1.129-1.579-2.461-1.579-3.995c0-1.54,0.526-2.874,1.579-4.003c1.042-1.118,2.321-1.737,3.839-1.857V7.191h0.921v0.658
		c1.518,0.12,2.8,0.742,3.847,1.866C97.699,10.838,98.223,12.17,98.223,13.71z M87.388,13.71c0,1.283,0.433,2.398,1.298,3.346
		c0.866,0.943,1.932,1.471,3.198,1.587V8.77c-1.266,0.115-2.332,0.644-3.198,1.586C87.821,11.304,87.388,12.422,87.388,13.71z
		 M92.805,18.643c1.266-0.116,2.332-0.644,3.198-1.587c0.866-0.948,1.299-2.063,1.299-3.346c0-1.288-0.433-2.406-1.299-3.354
		c-0.866-0.942-1.932-1.472-3.198-1.586V18.643z"/>
	<path fill="#666666" stroke="#666666" stroke-width="0.9903" stroke-miterlimit="10" d="M110.932,7.857v11.764h-0.92V9.402
		l-4.604,7.037l-4.595-7.037v10.218h-0.92V7.857h1.011l4.505,6.897l4.513-6.897H110.932z"/>
	<path fill="#666666" stroke="#666666" stroke-width="0.9903" stroke-miterlimit="10" d="M114.729,8.753v3.502
		c0.307,0.028,0.597,0.096,0.871,0.206c0.318,0.126,0.633,0.263,0.946,0.411c0.296,0.153,0.592,0.285,0.888,0.394
		c0.526,0.209,0.986,0.226,1.381,0.05c0.175-0.071,0.329-0.162,0.46-0.271c0.142-0.126,0.28-0.271,0.411-0.436
		c0.137-0.175,0.266-0.354,0.387-0.534l0.773,0.509c-0.132,0.192-0.274,0.389-0.428,0.592c-0.176,0.219-0.356,0.408-0.542,0.567
		c-0.208,0.175-0.441,0.318-0.699,0.428c-0.274,0.115-0.575,0.172-0.904,0.172c-0.406,0-0.795-0.071-1.167-0.214
		c-0.324-0.12-0.646-0.266-0.97-0.436c-0.29-0.131-0.581-0.26-0.871-0.386c-0.153-0.055-0.332-0.096-0.534-0.124V18.7h6.502v0.921
		H113.8v-6.092c-0.165,0.208-0.29,0.414-0.378,0.617l-0.847-0.378c0.159-0.356,0.367-0.682,0.625-0.978
		c0.165-0.181,0.364-0.321,0.6-0.419V7.832h7.432v0.921H114.729z"/>
	<path fill="#666666" stroke="#666666" stroke-width="0.9903" stroke-miterlimit="10" d="M131.984,11.359
		c0,0.899-0.329,1.685-0.986,2.359c0.657,0.674,0.986,1.46,0.986,2.359c0,0.976-0.379,1.811-1.135,2.507
		c-0.756,0.69-1.665,1.036-2.729,1.036h-4.785v-0.008h-0.46V7.824h0.46V7.815h4.785c1.063,0,1.973,0.346,2.729,1.036
		C131.605,9.547,131.984,10.383,131.984,11.359z M131.064,11.359c0-0.724-0.289-1.34-0.864-1.85
		c-0.575-0.515-1.269-0.772-2.079-0.772h-4.324v3.797h4.324c0.784,0,1.501,0.2,2.152,0.6C130.8,12.63,131.064,12.039,131.064,11.359
		z M129.395,13.718c-0.405-0.175-0.83-0.263-1.273-0.263h-4.324v0.526h4.324C128.564,13.981,128.989,13.894,129.395,13.718z
		 M128.121,18.7c0.811,0,1.504-0.257,2.079-0.772c0.575-0.51,0.864-1.126,0.864-1.85c0-0.68-0.265-1.271-0.791-1.776
		c-0.651,0.4-1.368,0.6-2.152,0.6h-4.324V18.7H128.121z"/>
	<path fill="#666666" stroke="#666666" stroke-width="0.9903" stroke-miterlimit="10" d="M141.102,17.639
		c0.465,0.51,0.803,0.809,1.011,0.896c0.208,0.082,0.712,0.123,1.512,0.123v0.92c-0.964,0-1.591-0.06-1.882-0.181
		c-0.301-0.126-0.74-0.504-1.315-1.135l-3.131-3.337h-2.755v4.694h-0.913V7.865h0.47V7.857h4.76c1.062,0,1.969,0.345,2.721,1.036
		c0.75,0.69,1.126,1.521,1.126,2.491c0,0.976-0.376,1.812-1.126,2.508c-0.752,0.69-1.658,1.035-2.721,1.035h-0.312L141.102,17.639z
		 M134.541,14.006h4.316c0.806,0,1.493-0.255,2.063-0.765c0.58-0.515,0.871-1.134,0.871-1.858c0-0.712-0.291-1.326-0.871-1.841
		c-0.57-0.51-1.258-0.765-2.063-0.765h-4.316V14.006z"/>
	<path fill="#666666" stroke="#666666" stroke-width="0.9903" stroke-miterlimit="10" d="M147.422,8.753v3.502
		c0.307,0.028,0.598,0.096,0.872,0.206c0.317,0.126,0.633,0.263,0.945,0.411c0.295,0.153,0.592,0.285,0.887,0.394
		c0.526,0.209,0.987,0.226,1.382,0.05c0.176-0.071,0.328-0.162,0.461-0.271c0.143-0.126,0.279-0.271,0.41-0.436
		c0.137-0.175,0.266-0.354,0.387-0.534l0.772,0.509c-0.132,0.192-0.274,0.389-0.428,0.592c-0.175,0.219-0.356,0.408-0.543,0.567
		c-0.208,0.175-0.44,0.318-0.698,0.428c-0.274,0.115-0.575,0.172-0.904,0.172c-0.405,0-0.795-0.071-1.167-0.214
		c-0.323-0.12-0.647-0.266-0.971-0.436c-0.29-0.131-0.58-0.26-0.871-0.386c-0.153-0.055-0.331-0.096-0.534-0.124V18.7h6.503v0.921
		h-7.432v-6.092c-0.164,0.208-0.29,0.414-0.378,0.617l-0.848-0.378c0.16-0.356,0.368-0.682,0.625-0.978
		c0.165-0.181,0.365-0.321,0.601-0.419V7.832h7.432v0.921H147.422z"/>
	<path fill="#666666" stroke="#666666" stroke-width="0.9903" stroke-miterlimit="10" d="M172.832,7.849l-5.285,11.771h-1.184
		l-2.162-4.826l-2.17,4.826h-1.177l-5.285-11.771h1.012l4.865,10.842l2.245-5.014l-2.614-5.828h1.011l2.113,4.702l2.104-4.702h1.012
		l-2.614,5.828l2.253,5.014l4.865-10.842H172.832z"/>
</g>
<g>
	<path fill="#FFEFCF" d="M84.113,12.878c-0.164,0.197-0.342,0.394-0.534,0.592c-0.208,0.214-0.431,0.4-0.666,0.559
		c-0.121,0.083-0.26,0.162-0.419,0.238v4.957h-0.929v-4.677c-0.636,0.098-1.28,0.049-1.932-0.148
		c-0.406-0.126-0.806-0.271-1.201-0.436c-0.362-0.137-0.729-0.266-1.102-0.386c-0.855-0.269-1.51-0.225-1.964,0.131
		c-0.17,0.137-0.285,0.274-0.345,0.411c-0.088,0.213-0.132,0.57-0.132,1.068v4.036h-0.92V7.453h0.92v5.475
		c0.4-0.285,0.86-0.427,1.381-0.427c0.466,0,0.913,0.068,1.34,0.206c0.384,0.121,0.77,0.255,1.159,0.402
		c0.378,0.159,0.757,0.296,1.135,0.412c0.351,0.104,0.721,0.156,1.11,0.156c0.181,0,0.364-0.019,0.551-0.058V7.453h0.929v5.746
		c0.159-0.121,0.302-0.244,0.427-0.37c0.181-0.186,0.343-0.367,0.485-0.542L84.113,12.878z"/>
	<path fill="#FFEFCF" d="M97.529,13.314c0,1.534-0.523,2.866-1.57,3.995c-1.047,1.118-2.33,1.737-3.848,1.858v0.657h-0.92v-0.657
		c-1.518-0.121-2.798-0.74-3.839-1.858c-1.052-1.129-1.579-2.461-1.579-3.995c0-1.54,0.526-2.875,1.579-4.003
		c1.041-1.118,2.321-1.738,3.839-1.858V6.795h0.92v0.658c1.518,0.12,2.801,0.743,3.848,1.866
		C97.006,10.442,97.529,11.774,97.529,13.314z M86.695,13.314c0,1.282,0.433,2.397,1.299,3.345c0.866,0.943,1.932,1.472,3.198,1.587
		V8.373c-1.266,0.115-2.332,0.645-3.198,1.587C87.128,10.908,86.695,12.026,86.695,13.314z M92.112,18.246
		c1.266-0.115,2.332-0.644,3.198-1.587c0.866-0.948,1.299-2.063,1.299-3.345c0-1.288-0.433-2.406-1.299-3.354
		c-0.866-0.942-1.932-1.472-3.198-1.587V18.246z"/>
	<path fill="#FFEFCF" d="M110.239,7.461v11.763h-0.921V9.006l-4.604,7.037l-4.595-7.037v10.218h-0.92V7.461h1.011l4.505,6.897
		l4.513-6.897H110.239z"/>
	<path fill="#FFEFCF" d="M114.036,8.356v3.502c0.307,0.027,0.597,0.096,0.872,0.205c0.317,0.126,0.633,0.263,0.945,0.412
		c0.296,0.153,0.592,0.285,0.888,0.394c0.525,0.208,0.986,0.225,1.381,0.049c0.175-0.071,0.329-0.161,0.46-0.271
		c0.143-0.126,0.28-0.271,0.411-0.436c0.137-0.175,0.266-0.354,0.387-0.535l0.772,0.51c-0.131,0.192-0.274,0.389-0.427,0.592
		c-0.176,0.22-0.356,0.409-0.542,0.567c-0.208,0.175-0.441,0.318-0.699,0.427c-0.274,0.115-0.575,0.172-0.904,0.172
		c-0.406,0-0.795-0.07-1.168-0.213c-0.323-0.12-0.646-0.266-0.97-0.436c-0.29-0.132-0.581-0.26-0.871-0.386
		c-0.153-0.055-0.332-0.096-0.535-0.124v5.516h6.502v0.92h-7.431v-6.091c-0.165,0.208-0.291,0.414-0.378,0.617l-0.846-0.378
		c0.159-0.356,0.367-0.682,0.625-0.978c0.165-0.181,0.364-0.32,0.6-0.419V7.436h7.431v0.92H114.036z"/>
	<path fill="#FFEFCF" d="M131.291,10.962c0,0.899-0.328,1.686-0.985,2.359c0.657,0.674,0.985,1.461,0.985,2.359
		c0,0.976-0.378,1.812-1.134,2.507c-0.757,0.69-1.666,1.036-2.729,1.036h-4.784v-0.008h-0.46V7.428h0.46V7.419h4.784
		c1.063,0,1.973,0.345,2.729,1.036C130.913,9.151,131.291,9.987,131.291,10.962z M130.371,10.962c0-0.723-0.288-1.34-0.864-1.85
		c-0.574-0.515-1.268-0.772-2.079-0.772h-4.324v3.798h4.324c0.784,0,1.502,0.2,2.153,0.6
		C130.107,12.234,130.371,11.642,130.371,10.962z M128.701,13.322c-0.405-0.175-0.83-0.263-1.273-0.263h-4.324v0.526h4.324
		C127.871,13.585,128.296,13.498,128.701,13.322z M127.428,18.304c0.812,0,1.505-0.257,2.079-0.773
		c0.576-0.51,0.864-1.126,0.864-1.85c0-0.679-0.264-1.271-0.79-1.775c-0.651,0.4-1.369,0.6-2.153,0.6h-4.324v3.798H127.428z"/>
	<path fill="#FFEFCF" d="M140.407,17.243c0.466,0.51,0.803,0.809,1.012,0.896c0.208,0.083,0.712,0.123,1.512,0.123v0.921
		c-0.964,0-1.591-0.06-1.882-0.181c-0.301-0.126-0.74-0.504-1.315-1.135l-3.132-3.337h-2.754v4.694h-0.913V7.469h0.47V7.461h4.76
		c1.062,0,1.969,0.345,2.721,1.035c0.75,0.691,1.126,1.521,1.126,2.491c0,0.976-0.376,1.812-1.126,2.507
		c-0.752,0.69-1.658,1.036-2.721,1.036h-0.312L140.407,17.243z M133.848,13.61h4.316c0.806,0,1.493-0.255,2.063-0.765
		c0.58-0.515,0.871-1.135,0.871-1.858c0-0.712-0.291-1.326-0.871-1.841c-0.57-0.51-1.258-0.765-2.063-0.765h-4.316V13.61z"/>
	<path fill="#FFEFCF" d="M146.729,8.356v3.502c0.307,0.027,0.597,0.096,0.872,0.205c0.316,0.126,0.632,0.263,0.945,0.412
		c0.295,0.153,0.592,0.285,0.887,0.394c0.526,0.208,0.987,0.225,1.382,0.049c0.176-0.071,0.328-0.161,0.46-0.271
		c0.143-0.126,0.279-0.271,0.411-0.436c0.137-0.175,0.266-0.354,0.387-0.535l0.772,0.51c-0.132,0.192-0.274,0.389-0.428,0.592
		c-0.175,0.22-0.356,0.409-0.543,0.567c-0.208,0.175-0.44,0.318-0.698,0.427c-0.274,0.115-0.575,0.172-0.904,0.172
		c-0.405,0-0.795-0.07-1.167-0.213c-0.323-0.12-0.647-0.266-0.971-0.436c-0.29-0.132-0.58-0.26-0.871-0.386
		c-0.153-0.055-0.331-0.096-0.534-0.124v5.516h6.502v0.92h-7.431v-6.091c-0.164,0.208-0.291,0.414-0.378,0.617l-0.848-0.378
		c0.16-0.356,0.368-0.682,0.625-0.978c0.165-0.181,0.365-0.32,0.601-0.419V7.436h7.431v0.92H146.729z"/>
	<path fill="#FFEFCF" d="M172.139,7.453l-5.285,11.771h-1.185l-2.162-4.825l-2.17,4.825h-1.176l-5.286-11.771h1.012l4.866,10.843
		l2.245-5.014l-2.614-5.829h1.011l2.112,4.702l2.104-4.702h1.012l-2.614,5.829l2.253,5.014l4.865-10.843H172.139z"/>
</g>
</svg>
