<?xml version="1.0" encoding="utf-8"?>
<!-- Generator: Adobe Illustrator 16.0.0, SVG Export Plug-In . SVG Version: 6.00 Build 0)  -->
<!DOCTYPE svg PUBLIC "-//W3C//DTD SVG 1.1//EN" "http://www.w3.org/Graphics/SVG/1.1/DTD/svg11.dtd">
<svg version="1.1" id="Layer_1" xmlns="http://www.w3.org/2000/svg" xmlns:xlink="http://www.w3.org/1999/xlink" x="0px" y="0px"
	 width="400px" height="200px" viewBox="0 0 400 200" enable-background="new 0 0 400 200" xml:space="preserve">
<polyline opacity="0.4" fill="#666666" enable-background="new    " points="109.429,23.015 9.656,173.958 74.099,199.367 
	191.641,199.73 353.755,199.355 "/>
<rect x="130" y="18.999" opacity="0.4" fill="#F2F2F2" enable-background="new    " width="268" height="113"/>
<rect x="129.667" y="139.999" opacity="0.4" fill="#F2F2F2" enable-background="new    " width="268" height="23"/>
<g enable-background="new    ">
	<path fill="#666666" d="M193.896,74.44v48.059h-3.761V80.754l-18.807,28.748l-18.773-28.748v41.745h-3.761V74.44h4.131
		l18.404,28.177l18.438-28.177H193.896z"/>
	<path fill="#666666" d="M248.705,98.353c0,6.269-2.139,11.709-6.414,16.321c-4.277,4.567-9.518,7.098-15.718,7.59v2.688h-3.763
		v-2.688c-6.201-0.492-11.43-3.021-15.684-7.59c-4.299-4.611-6.447-10.053-6.447-16.321c0-6.292,2.148-11.743,6.447-16.355
		c4.254-4.567,9.48-7.097,15.684-7.59V71.72h3.763v2.687c6.2,0.493,11.44,3.034,15.718,7.624
		C246.566,86.621,248.705,92.061,248.705,98.353z M204.441,98.353c0,5.239,1.769,9.795,5.307,13.668
		c3.537,3.852,7.893,6.012,13.062,6.481V78.168c-5.172,0.47-9.525,2.631-13.062,6.481C206.21,88.524,204.441,93.091,204.441,98.353z
		 M226.573,118.503c5.172-0.471,9.526-2.631,13.063-6.481c3.536-3.873,5.307-8.43,5.307-13.668c0-5.261-1.771-9.829-5.307-13.703
		c-3.537-3.851-7.893-6.011-13.063-6.481V118.503z"/>
	<path fill="#666666" d="M296.896,74.374v48.125h-3.728v-11.083l-33.887-32.643v43.726h-3.761V74.374h4.566l33.08,31.804V74.374
		H296.896z"/>
	<path fill="#666666" d="M329.843,114.54c1.858,2.015,3.214,3.19,4.064,3.526c0.827,0.334,2.876,0.502,6.146,0.502v3.729
		c-3.939,0-6.504-0.246-7.689-0.739c-1.231-0.492-3.022-2.025-5.375-4.601L312.75,98.755l-5.373,5.004v18.74h-3.762V74.407h3.762
		v24.214l25.993-24.214h5.374l-0.639,0.504l-22.603,21.292L329.843,114.54z"/>
	<path fill="#666666" d="M348.65,122.499v-3.763h22.668c3,0,5.509-0.961,7.522-2.887c2.037-1.904,3.058-4.276,3.058-7.121
		c0-2.888-1.03-5.328-3.09-7.32c-2.039-1.97-4.535-2.955-7.49-2.955h-10.176c-5.373,0-9.258-1.198-11.652-3.594
		c-1.813-1.813-2.721-4.243-2.721-7.288c0-3.806,1.354-6.952,4.062-9.437c2.709-2.462,6.146-3.694,10.311-3.694h22.637v3.728
		h-22.637c-3.111,0-5.664,0.873-7.656,2.62c-1.971,1.746-2.955,4.008-2.955,6.784c0,2.038,0.582,3.605,1.746,4.702
		c1.679,1.635,4.635,2.452,8.865,2.452h10.176c4.009,0,7.399,1.343,10.177,4.03c2.776,2.71,4.164,6.034,4.164,9.975
		c0,3.918-1.378,7.188-4.132,9.808c-2.752,2.644-6.156,3.963-10.209,3.963H348.65V122.499z"/>
</g>
<g enable-background="new    ">
	<path fill="none" stroke="#666666" stroke-width="2.5474" stroke-miterlimit="10" d="M193.896,74.44v48.059h-3.761V80.754
		l-18.807,28.748l-18.773-28.748v41.745h-3.761V74.44h4.131l18.404,28.177l18.438-28.177H193.896z"/>
	<path fill="none" stroke="#666666" stroke-width="2.5474" stroke-miterlimit="10" d="M248.705,98.353
		c0,6.269-2.139,11.709-6.414,16.321c-4.277,4.567-9.518,7.098-15.718,7.59v2.688h-3.763v-2.688
		c-6.201-0.492-11.43-3.021-15.684-7.59c-4.299-4.611-6.447-10.053-6.447-16.321c0-6.292,2.148-11.743,6.447-16.355
		c4.254-4.567,9.48-7.097,15.684-7.59V71.72h3.763v2.687c6.2,0.493,11.44,3.034,15.718,7.624
		C246.566,86.621,248.705,92.061,248.705,98.353z M204.441,98.353c0,5.239,1.769,9.795,5.307,13.668
		c3.537,3.852,7.893,6.012,13.062,6.481V78.168c-5.172,0.47-9.525,2.631-13.062,6.481C206.21,88.524,204.441,93.091,204.441,98.353z
		 M226.573,118.503c5.172-0.471,9.526-2.631,13.063-6.481c3.536-3.873,5.307-8.43,5.307-13.668c0-5.261-1.771-9.829-5.307-13.703
		c-3.537-3.851-7.893-6.011-13.063-6.481V118.503z"/>
	<path fill="none" stroke="#666666" stroke-width="2.5474" stroke-miterlimit="10" d="M296.896,74.374v48.125h-3.728v-11.083
		l-33.887-32.643v43.726h-3.761V74.374h4.566l33.08,31.804V74.374H296.896z"/>
	<path fill="none" stroke="#666666" stroke-width="2.5474" stroke-miterlimit="10" d="M329.843,114.54
		c1.858,2.015,3.214,3.19,4.064,3.526c0.827,0.334,2.876,0.502,6.146,0.502v3.729c-3.939,0-6.504-0.246-7.689-0.739
		c-1.231-0.492-3.022-2.025-5.375-4.601L312.75,98.755l-5.373,5.004v18.74h-3.762V74.407h3.762v24.214l25.993-24.214h5.374
		l-0.639,0.504l-22.603,21.292L329.843,114.54z"/>
	<path fill="none" stroke="#666666" stroke-width="2.5474" stroke-miterlimit="10" d="M348.65,122.499v-3.763h22.668
		c3,0,5.509-0.961,7.522-2.887c2.037-1.904,3.058-4.276,3.058-7.121c0-2.888-1.03-5.328-3.09-7.32
		c-2.039-1.97-4.535-2.955-7.49-2.955h-10.176c-5.373,0-9.258-1.198-11.652-3.594c-1.813-1.813-2.721-4.243-2.721-7.288
		c0-3.806,1.354-6.952,4.062-9.437c2.709-2.462,6.146-3.694,10.311-3.694h22.637v3.728h-22.637c-3.111,0-5.664,0.873-7.656,2.62
		c-1.971,1.746-2.955,4.008-2.955,6.784c0,2.038,0.582,3.605,1.746,4.702c1.679,1.635,4.635,2.452,8.865,2.452h10.176
		c4.009,0,7.399,1.343,10.177,4.03c2.776,2.71,4.164,6.034,4.164,9.975c0,3.918-1.378,7.188-4.132,9.808
		c-2.752,2.644-6.156,3.963-10.209,3.963H348.65V122.499z"/>
</g>
<g enable-background="new    ">
	<path fill="#FFEFCF" d="M192.24,73.042v48.06h-3.761V79.356l-18.807,28.748l-18.773-28.748v41.746h-3.761v-48.06h4.131
		l18.404,28.177l18.438-28.177H192.24z"/>
	<path fill="#FFEFCF" d="M247.049,96.954c0,6.269-2.139,11.709-6.414,16.321c-4.277,4.566-9.517,7.098-15.718,7.59v2.687h-3.763
		v-2.687c-6.201-0.492-11.43-3.022-15.684-7.59c-4.299-4.612-6.448-10.053-6.448-16.321c0-6.292,2.149-11.743,6.448-16.355
		c4.254-4.567,9.481-7.097,15.684-7.59v-2.687h3.763v2.687c6.201,0.493,11.44,3.034,15.718,7.624
		C244.91,85.222,247.049,90.663,247.049,96.954z M202.785,96.954c0,5.239,1.77,9.795,5.307,13.668
		c3.537,3.853,7.893,6.012,13.062,6.481V76.77c-5.172,0.47-9.525,2.631-13.062,6.481C204.555,87.125,202.785,91.693,202.785,96.954z
		 M224.917,117.104c5.172-0.471,9.526-2.631,13.063-6.481c3.537-3.873,5.307-8.429,5.307-13.668c0-5.261-1.77-9.829-5.307-13.703
		c-3.537-3.851-7.893-6.011-13.063-6.481V117.104z"/>
	<path fill="#FFEFCF" d="M295.241,72.975V121.1h-3.728v-11.082l-33.888-32.644V121.1h-3.761V72.975h4.566l33.08,31.804V72.975
		H295.241z"/>
	<path fill="#FFEFCF" d="M328.188,113.143c1.857,2.015,3.213,3.189,4.063,3.525c0.828,0.335,2.876,0.503,6.146,0.503v3.729
		c-3.939,0-6.504-0.246-7.689-0.739c-1.23-0.492-3.021-2.026-5.374-4.601l-14.239-18.204l-5.373,5.004v18.74h-3.762V73.008h3.762
		v24.214l25.993-24.214h5.374l-0.639,0.504l-22.602,21.292L328.188,113.143z"/>
	<path fill="#FFEFCF" d="M346.994,121.102v-3.763h22.669c3,0,5.508-0.962,7.522-2.888c2.037-1.903,3.057-4.276,3.057-7.12
		c0-2.888-1.03-5.328-3.09-7.321c-2.038-1.97-4.534-2.955-7.489-2.955h-10.177c-5.373,0-9.258-1.198-11.652-3.594
		c-1.812-1.813-2.721-4.243-2.721-7.288c0-3.806,1.354-6.952,4.062-9.437c2.709-2.462,6.146-3.694,10.311-3.694h22.637v3.728
		h-22.637c-3.111,0-5.664,0.873-7.656,2.62c-1.971,1.746-2.955,4.008-2.955,6.784c0,2.038,0.582,3.605,1.746,4.702
		c1.679,1.635,4.635,2.452,8.865,2.452h10.177c4.008,0,7.399,1.343,10.176,4.03c2.776,2.71,4.164,6.035,4.164,9.975
		c0,3.918-1.377,7.188-4.131,9.808c-2.753,2.643-6.157,3.963-10.209,3.963h-22.669V121.102z"/>
</g>
<g enable-background="new    ">
	<path fill="#666666" d="M167.188,42.107c-0.423,0.508-0.881,1.015-1.375,1.522c-0.536,0.55-1.107,1.029-1.713,1.438
		c-0.31,0.212-0.669,0.416-1.078,0.613v12.751h-2.39V46.4c-1.635,0.253-3.292,0.126-4.969-0.381
		c-1.043-0.324-2.072-0.698-3.087-1.121c-0.931-0.352-1.875-0.684-2.833-0.994c-2.199-0.69-3.884-0.577-5.054,0.339
		c-0.438,0.353-0.733,0.705-0.888,1.058c-0.226,0.55-0.338,1.466-0.338,2.748v10.383h-2.368v-30.28h2.368v14.083
		c1.029-0.732,2.213-1.1,3.552-1.1c1.198,0,2.347,0.177,3.447,0.528c0.986,0.311,1.98,0.656,2.981,1.036
		c0.973,0.409,1.945,0.762,2.918,1.058c0.902,0.268,1.854,0.401,2.855,0.401c0.465,0,0.937-0.049,1.417-0.147v-15.86h2.39v14.78
		c0.409-0.31,0.775-0.627,1.099-0.951c0.465-0.479,0.881-0.944,1.248-1.396L167.188,42.107z"/>
	<path fill="#666666" d="M201.695,43.229c0,3.947-1.345,7.372-4.038,10.276c-2.693,2.876-5.991,4.469-9.896,4.778v1.692h-2.368
		v-1.692c-3.905-0.31-7.197-1.902-9.875-4.778c-2.707-2.904-4.06-6.329-4.06-10.276c0-3.962,1.354-7.394,4.06-10.298
		c2.678-2.875,5.97-4.468,9.875-4.779V26.46h2.368v1.691c3.905,0.311,7.203,1.911,9.896,4.8
		C200.35,35.842,201.695,39.267,201.695,43.229z M173.827,43.229c0,3.298,1.114,6.167,3.341,8.605
		c2.227,2.425,4.969,3.785,8.226,4.081V30.52c-3.256,0.296-5.999,1.657-8.226,4.081C174.94,37.04,173.827,39.916,173.827,43.229z
		 M187.762,55.915c3.256-0.296,5.998-1.656,8.226-4.081c2.227-2.438,3.341-5.308,3.341-8.605c0-3.312-1.114-6.188-3.341-8.628
		c-2.228-2.424-4.969-3.785-8.226-4.081V55.915z"/>
	<path fill="#666666" d="M234.387,28.173v30.259h-2.367V32.148l-11.842,18.1l-11.82-18.1v26.284h-2.367V28.173h2.601l11.589,17.741
		l11.608-17.741H234.387z"/>
	<path fill="#666666" d="M244.156,30.478v9.008c0.789,0.07,1.537,0.247,2.242,0.528c0.815,0.325,1.627,0.677,2.432,1.058
		c0.761,0.395,1.521,0.733,2.283,1.015c1.354,0.536,2.537,0.578,3.553,0.127c0.451-0.183,0.846-0.415,1.184-0.697
		c0.367-0.324,0.719-0.698,1.059-1.121c0.354-0.451,0.684-0.909,0.992-1.374l1.988,1.311c-0.338,0.494-0.705,1.001-1.1,1.522
		c-0.451,0.564-0.916,1.051-1.396,1.459c-0.535,0.451-1.135,0.818-1.797,1.1c-0.705,0.296-1.479,0.444-2.326,0.444
		c-1.043,0-2.043-0.184-3.002-0.55c-0.832-0.31-1.664-0.684-2.496-1.121c-0.746-0.338-1.494-0.669-2.24-0.993
		c-0.395-0.142-0.854-0.247-1.375-0.317v14.188h16.727v2.368h-19.115v-15.67c-0.424,0.536-0.748,1.064-0.973,1.586l-2.178-0.973
		c0.408-0.916,0.943-1.755,1.605-2.517c0.424-0.465,0.938-0.824,1.545-1.078V28.109h19.114v2.368L244.156,30.478L244.156,30.478z"/>
	<path fill="#666666" d="M288.541,37.181c0,2.312-0.846,4.335-2.538,6.068c1.692,1.734,2.538,3.757,2.538,6.069
		c0,2.509-0.973,4.659-2.918,6.449c-1.946,1.776-4.286,2.664-7.021,2.664h-12.307V58.41h-1.186V28.088h1.186v-0.021h12.307
		c2.734,0,5.074,0.888,7.021,2.665C287.568,32.521,288.541,34.672,288.541,37.181z M286.173,37.181c0-1.861-0.739-3.447-2.221-4.758
		c-1.479-1.325-3.265-1.988-5.351-1.988h-11.123v9.769h11.123c2.017,0,3.862,0.515,5.541,1.544
		C285.496,40.451,286.173,38.929,286.173,37.181z M281.88,43.249c-1.043-0.451-2.136-0.677-3.276-0.677H267.48v1.354h11.123
		C279.744,43.926,280.837,43.7,281.88,43.249z M278.604,56.063c2.086,0,3.869-0.662,5.35-1.987c1.48-1.312,2.221-2.897,2.221-4.758
		c0-1.748-0.677-3.271-2.029-4.567c-1.679,1.028-3.524,1.543-5.541,1.543H267.48v9.77L278.604,56.063L278.604,56.063z"/>
	<path fill="#666666" d="M311.991,53.336c1.196,1.311,2.063,2.079,2.601,2.305c0.535,0.211,1.832,0.317,3.891,0.317v2.368
		c-2.48,0-4.094-0.155-4.842-0.466c-0.774-0.324-1.902-1.297-3.384-2.918l-8.057-8.585h-7.083v12.074h-2.348V28.194h1.205v-0.021
		h12.242c2.735,0,5.068,0.888,7,2.664s2.896,3.912,2.896,6.407c0,2.509-0.967,4.659-2.896,6.449c-1.932,1.776-4.265,2.664-7,2.664
		h-0.803L311.991,53.336z M295.117,43.989h11.101c2.072,0,3.843-0.655,5.308-1.967c1.494-1.324,2.242-2.918,2.242-4.778
		c0-1.833-0.748-3.411-2.242-4.737c-1.465-1.311-3.234-1.966-5.308-1.966h-11.101V43.989z"/>
	<path fill="#666666" d="M328.251,30.478v9.008c0.79,0.07,1.537,0.247,2.242,0.528c0.817,0.325,1.628,0.677,2.432,1.058
		c0.761,0.395,1.522,0.733,2.283,1.015c1.354,0.536,2.537,0.578,3.554,0.127c0.45-0.183,0.846-0.415,1.184-0.697
		c0.367-0.324,0.72-0.698,1.058-1.121c0.353-0.451,0.685-0.909,0.994-1.374l1.987,1.311c-0.338,0.494-0.705,1.001-1.101,1.522
		c-0.45,0.564-0.916,1.051-1.396,1.459c-0.536,0.451-1.135,0.818-1.797,1.1c-0.705,0.296-1.48,0.444-2.326,0.444
		c-1.045,0-2.045-0.184-3.004-0.55c-0.831-0.31-1.662-0.684-2.494-1.121c-0.747-0.338-1.494-0.669-2.241-0.993
		c-0.396-0.142-0.854-0.247-1.375-0.317v14.188h16.728v2.368h-19.115v-15.67c-0.424,0.536-0.748,1.064-0.973,1.586l-2.18-0.973
		c0.409-0.916,0.944-1.755,1.607-2.517c0.423-0.465,0.938-0.824,1.544-1.078V28.109h19.114v2.368L328.251,30.478L328.251,30.478z"/>
	<path fill="#666666" d="M393.611,28.151l-13.598,30.28h-3.045l-5.561-12.412l-5.583,12.412h-3.023l-13.597-30.28h2.602
		l12.519,27.891l5.772-12.898l-6.725-14.992h2.602l5.435,12.096l5.413-12.096h2.601l-6.724,14.992l5.793,12.898l12.519-27.891
		H393.611z"/>
</g>
<g enable-background="new    ">
	<path fill="none" stroke="#666666" stroke-width="2.5474" stroke-miterlimit="10" d="M167.188,42.107
		c-0.423,0.508-0.881,1.015-1.375,1.522c-0.536,0.55-1.107,1.029-1.713,1.438c-0.31,0.212-0.669,0.416-1.078,0.613v12.751h-2.39
		V46.4c-1.635,0.253-3.292,0.126-4.969-0.381c-1.043-0.324-2.072-0.698-3.087-1.121c-0.931-0.352-1.875-0.684-2.833-0.994
		c-2.199-0.69-3.884-0.577-5.054,0.339c-0.438,0.353-0.733,0.705-0.888,1.058c-0.226,0.55-0.338,1.466-0.338,2.748v10.383h-2.368
		v-30.28h2.368v14.083c1.029-0.732,2.213-1.1,3.552-1.1c1.198,0,2.347,0.177,3.447,0.528c0.986,0.311,1.98,0.656,2.981,1.036
		c0.973,0.409,1.945,0.762,2.918,1.058c0.902,0.268,1.854,0.401,2.855,0.401c0.465,0,0.937-0.049,1.417-0.147v-15.86h2.39v14.78
		c0.409-0.31,0.775-0.627,1.099-0.951c0.465-0.479,0.881-0.944,1.248-1.396L167.188,42.107z"/>
	<path fill="none" stroke="#666666" stroke-width="2.5474" stroke-miterlimit="10" d="M201.695,43.229
		c0,3.947-1.345,7.372-4.038,10.276c-2.693,2.876-5.991,4.469-9.896,4.778v1.692h-2.368v-1.692c-3.905-0.31-7.197-1.902-9.875-4.778
		c-2.707-2.904-4.06-6.329-4.06-10.276c0-3.962,1.354-7.394,4.06-10.298c2.678-2.875,5.97-4.468,9.875-4.779V26.46h2.368v1.691
		c3.905,0.311,7.203,1.911,9.896,4.8C200.35,35.842,201.695,39.267,201.695,43.229z M173.827,43.229
		c0,3.298,1.114,6.167,3.341,8.605c2.227,2.425,4.969,3.785,8.226,4.081V30.52c-3.256,0.296-5.999,1.657-8.226,4.081
		C174.94,37.04,173.827,39.916,173.827,43.229z M187.762,55.915c3.256-0.296,5.998-1.656,8.226-4.081
		c2.227-2.438,3.341-5.308,3.341-8.605c0-3.312-1.114-6.188-3.341-8.628c-2.228-2.424-4.969-3.785-8.226-4.081V55.915z"/>
	<path fill="none" stroke="#666666" stroke-width="2.5474" stroke-miterlimit="10" d="M234.387,28.173v30.259h-2.367V32.148
		l-11.842,18.1l-11.82-18.1v26.284h-2.367V28.173h2.601l11.589,17.741l11.608-17.741H234.387z"/>
	<path fill="none" stroke="#666666" stroke-width="2.5474" stroke-miterlimit="10" d="M244.156,30.478v9.008
		c0.789,0.07,1.537,0.247,2.242,0.528c0.815,0.325,1.627,0.677,2.432,1.058c0.761,0.395,1.521,0.733,2.283,1.015
		c1.354,0.536,2.537,0.578,3.553,0.127c0.451-0.183,0.846-0.415,1.184-0.697c0.367-0.324,0.719-0.698,1.059-1.121
		c0.354-0.451,0.684-0.909,0.992-1.374l1.988,1.311c-0.338,0.494-0.705,1.001-1.1,1.522c-0.451,0.564-0.916,1.051-1.396,1.459
		c-0.535,0.451-1.135,0.818-1.797,1.1c-0.705,0.296-1.479,0.444-2.326,0.444c-1.043,0-2.043-0.184-3.002-0.55
		c-0.832-0.31-1.664-0.684-2.496-1.121c-0.746-0.338-1.494-0.669-2.24-0.993c-0.395-0.142-0.854-0.247-1.375-0.317v14.188h16.727
		v2.368h-19.115v-15.67c-0.424,0.536-0.748,1.064-0.973,1.586l-2.178-0.973c0.408-0.916,0.943-1.755,1.605-2.517
		c0.424-0.465,0.938-0.824,1.545-1.078V28.109h19.114v2.368L244.156,30.478L244.156,30.478z"/>
	<path fill="none" stroke="#666666" stroke-width="2.5474" stroke-miterlimit="10" d="M288.541,37.181
		c0,2.312-0.846,4.335-2.538,6.068c1.692,1.734,2.538,3.757,2.538,6.069c0,2.509-0.973,4.659-2.918,6.449
		c-1.946,1.776-4.286,2.664-7.021,2.664h-12.307V58.41h-1.186V28.088h1.186v-0.021h12.307c2.734,0,5.074,0.888,7.021,2.665
		C287.568,32.521,288.541,34.672,288.541,37.181z M286.173,37.181c0-1.861-0.739-3.447-2.221-4.758
		c-1.479-1.325-3.265-1.988-5.351-1.988h-11.123v9.769h11.123c2.017,0,3.862,0.515,5.541,1.544
		C285.496,40.451,286.173,38.929,286.173,37.181z M281.88,43.249c-1.043-0.451-2.136-0.677-3.276-0.677H267.48v1.354h11.123
		C279.744,43.926,280.837,43.7,281.88,43.249z M278.604,56.063c2.086,0,3.869-0.662,5.35-1.987c1.48-1.312,2.221-2.897,2.221-4.758
		c0-1.748-0.677-3.271-2.029-4.567c-1.679,1.028-3.524,1.543-5.541,1.543H267.48v9.77L278.604,56.063L278.604,56.063z"/>
	<path fill="none" stroke="#666666" stroke-width="2.5474" stroke-miterlimit="10" d="M311.991,53.336
		c1.196,1.311,2.063,2.079,2.601,2.305c0.535,0.211,1.832,0.317,3.891,0.317v2.368c-2.48,0-4.094-0.155-4.842-0.466
		c-0.774-0.324-1.902-1.297-3.384-2.918l-8.057-8.585h-7.083v12.074h-2.348V28.194h1.205v-0.021h12.242c2.735,0,5.068,0.888,7,2.664
		s2.896,3.912,2.896,6.407c0,2.509-0.967,4.659-2.896,6.449c-1.932,1.776-4.265,2.664-7,2.664h-0.803L311.991,53.336z
		 M295.117,43.989h11.101c2.072,0,3.843-0.655,5.308-1.967c1.494-1.324,2.242-2.918,2.242-4.778c0-1.833-0.748-3.411-2.242-4.737
		c-1.465-1.311-3.234-1.966-5.308-1.966h-11.101V43.989z"/>
	<path fill="none" stroke="#666666" stroke-width="2.5474" stroke-miterlimit="10" d="M328.251,30.478v9.008
		c0.79,0.07,1.537,0.247,2.242,0.528c0.817,0.325,1.628,0.677,2.432,1.058c0.761,0.395,1.522,0.733,2.283,1.015
		c1.354,0.536,2.537,0.578,3.554,0.127c0.45-0.183,0.846-0.415,1.184-0.697c0.367-0.324,0.72-0.698,1.058-1.121
		c0.353-0.451,0.685-0.909,0.994-1.374l1.987,1.311c-0.338,0.494-0.705,1.001-1.101,1.522c-0.45,0.564-0.916,1.051-1.396,1.459
		c-0.536,0.451-1.135,0.818-1.797,1.1c-0.705,0.296-1.48,0.444-2.326,0.444c-1.045,0-2.045-0.184-3.004-0.55
		c-0.831-0.31-1.662-0.684-2.494-1.121c-0.747-0.338-1.494-0.669-2.241-0.993c-0.396-0.142-0.854-0.247-1.375-0.317v14.188h16.728
		v2.368h-19.115v-15.67c-0.424,0.536-0.748,1.064-0.973,1.586l-2.18-0.973c0.409-0.916,0.944-1.755,1.607-2.517
		c0.423-0.465,0.938-0.824,1.544-1.078V28.109h19.114v2.368L328.251,30.478L328.251,30.478z"/>
	<path fill="none" stroke="#666666" stroke-width="2.5474" stroke-miterlimit="10" d="M393.611,28.151l-13.598,30.28h-3.045
		l-5.561-12.412l-5.583,12.412h-3.023l-13.597-30.28h2.602l12.519,27.891l5.772-12.898l-6.725-14.992h2.602l5.435,12.096
		l5.413-12.096h2.601l-6.724,14.992l5.793,12.898l12.519-27.891H393.611z"/>
</g>
<g enable-background="new    ">
	<path fill="#FFEFCF" d="M165.405,41.091c-0.423,0.508-0.881,1.015-1.375,1.522c-0.536,0.55-1.107,1.029-1.713,1.438
		c-0.31,0.212-0.669,0.416-1.078,0.613v12.751h-2.39V45.384c-1.635,0.253-3.292,0.126-4.969-0.381
		c-1.043-0.324-2.072-0.698-3.087-1.121c-0.931-0.352-1.875-0.684-2.833-0.994c-2.199-0.69-3.884-0.577-5.054,0.339
		c-0.438,0.353-0.733,0.705-0.888,1.058c-0.226,0.55-0.338,1.466-0.338,2.748v10.383h-2.368v-30.28h2.368v14.083
		c1.029-0.732,2.213-1.1,3.552-1.1c1.198,0,2.347,0.177,3.447,0.528c0.986,0.311,1.98,0.656,2.981,1.036
		c0.973,0.409,1.945,0.762,2.918,1.058c0.902,0.268,1.854,0.401,2.855,0.401c0.465,0,0.937-0.049,1.417-0.147v-15.86h2.39v14.78
		c0.409-0.31,0.775-0.627,1.099-0.951c0.465-0.479,0.881-0.944,1.248-1.396L165.405,41.091z"/>
	<path fill="#FFEFCF" d="M199.914,42.212c0,3.947-1.346,7.372-4.039,10.276c-2.693,2.876-5.991,4.469-9.896,4.778v1.692h-2.368
		v-1.692c-3.905-0.31-7.197-1.902-9.875-4.778c-2.707-2.904-4.06-6.329-4.06-10.276c0-3.962,1.354-7.394,4.06-10.298
		c2.678-2.875,5.97-4.468,9.875-4.779v-1.691h2.368v1.691c3.905,0.311,7.203,1.911,9.896,4.8
		C198.568,34.825,199.914,38.25,199.914,42.212z M172.044,42.212c0,3.298,1.114,6.167,3.341,8.605
		c2.227,2.425,4.969,3.785,8.226,4.081V29.503c-3.256,0.296-5.999,1.657-8.226,4.081C173.158,36.023,172.044,38.899,172.044,42.212z
		 M185.979,54.898c3.256-0.296,5.998-1.656,8.226-4.081c2.227-2.438,3.341-5.308,3.341-8.605c0-3.312-1.114-6.188-3.341-8.628
		c-2.228-2.424-4.969-3.785-8.226-4.081V54.898z"/>
	<path fill="#FFEFCF" d="M232.605,27.156v30.259h-2.369V31.131l-11.842,18.1l-11.819-18.1v26.284h-2.368V27.156h2.602l11.588,17.741
		l11.607-17.741H232.605z"/>
	<path fill="#FFEFCF" d="M242.375,29.461v9.008c0.789,0.07,1.535,0.247,2.24,0.528c0.818,0.325,1.629,0.677,2.432,1.058
		c0.762,0.395,1.523,0.733,2.284,1.015c1.354,0.536,2.538,0.578,3.553,0.127c0.45-0.183,0.847-0.415,1.185-0.697
		c0.365-0.324,0.72-0.698,1.058-1.121c0.353-0.451,0.685-0.909,0.994-1.374l1.987,1.311c-0.34,0.494-0.705,1.001-1.101,1.522
		c-0.45,0.564-0.917,1.051-1.396,1.459c-0.536,0.451-1.135,0.818-1.797,1.1c-0.705,0.296-1.48,0.444-2.326,0.444
		c-1.043,0-2.045-0.184-3.004-0.55c-0.832-0.31-1.662-0.684-2.494-1.121c-0.748-0.338-1.494-0.669-2.241-0.993
		c-0.396-0.142-0.854-0.247-1.374-0.317v14.188H259.1v2.368h-19.115v-15.67c-0.422,0.536-0.746,1.064-0.973,1.586l-2.178-0.973
		c0.409-0.916,0.943-1.755,1.607-2.517c0.422-0.465,0.938-0.824,1.543-1.078V27.093H259.1v2.368H242.375z"/>
	<path fill="#FFEFCF" d="M286.759,36.164c0,2.312-0.846,4.335-2.538,6.068c1.692,1.734,2.538,3.757,2.538,6.069
		c0,2.509-0.973,4.659-2.918,6.449c-1.946,1.776-4.286,2.664-7.021,2.664h-12.307v-0.021h-1.186V27.071h1.186V27.05h12.307
		c2.734,0,5.074,0.888,7.021,2.665C285.786,31.505,286.759,33.655,286.759,36.164z M284.391,36.164c0-1.861-0.74-3.447-2.221-4.758
		c-1.48-1.325-3.264-1.988-5.35-1.988h-11.123v9.769h11.123c2.016,0,3.861,0.515,5.539,1.544
		C283.714,39.435,284.391,37.912,284.391,36.164z M280.098,42.232c-1.043-0.451-2.136-0.677-3.277-0.677h-11.122v1.354h11.122
		C277.962,42.909,279.055,42.684,280.098,42.232z M276.82,55.047c2.086,0,3.869-0.662,5.35-1.987
		c1.48-1.312,2.221-2.897,2.221-4.758c0-1.748-0.677-3.271-2.029-4.567c-1.678,1.028-3.524,1.543-5.541,1.543h-11.122v9.77
		L276.82,55.047L276.82,55.047z"/>
	<path fill="#FFEFCF" d="M310.209,52.319c1.197,1.311,2.064,2.079,2.602,2.305c0.535,0.211,1.832,0.317,3.891,0.317v2.368
		c-2.48,0-4.096-0.155-4.842-0.466c-0.775-0.324-1.903-1.297-3.385-2.918l-8.057-8.585h-7.083v12.074h-2.349V27.177h1.205v-0.021
		h12.244c2.734,0,5.067,0.888,7,2.664c1.931,1.776,2.896,3.912,2.896,6.407c0,2.509-0.966,4.659-2.896,6.449
		c-1.933,1.776-4.266,2.664-7,2.664h-0.804L310.209,52.319z M293.335,42.973h11.101c2.072,0,3.842-0.655,5.309-1.967
		c1.494-1.324,2.242-2.918,2.242-4.778c0-1.833-0.748-3.411-2.242-4.737c-1.467-1.311-3.235-1.966-5.309-1.966h-11.101V42.973z"/>
	<path fill="#FFEFCF" d="M326.469,29.461v9.008c0.79,0.07,1.537,0.247,2.242,0.528c0.816,0.325,1.628,0.677,2.432,1.058
		c0.762,0.395,1.522,0.733,2.283,1.015c1.354,0.536,2.537,0.578,3.553,0.127c0.451-0.183,0.847-0.415,1.185-0.697
		c0.366-0.324,0.72-0.698,1.058-1.121c0.354-0.451,0.684-0.909,0.994-1.374l1.987,1.311c-0.339,0.494-0.705,1.001-1.101,1.522
		c-0.451,0.564-0.916,1.051-1.396,1.459c-0.536,0.451-1.136,0.818-1.797,1.1c-0.705,0.296-1.479,0.444-2.326,0.444
		c-1.044,0-2.045-0.184-3.003-0.55c-0.832-0.31-1.663-0.684-2.495-1.121c-0.747-0.338-1.494-0.669-2.241-0.993
		c-0.396-0.142-0.854-0.247-1.375-0.317v14.188h16.727v2.368H324.08v-15.67c-0.423,0.536-0.748,1.064-0.973,1.586l-2.18-0.973
		c0.409-0.916,0.944-1.755,1.607-2.517c0.423-0.465,0.938-0.824,1.544-1.078V27.093h19.114v2.368H326.469z"/>
	<path fill="#FFEFCF" d="M391.829,27.135l-13.597,30.28h-3.045l-5.562-12.412l-5.583,12.412h-3.023l-13.597-30.28h2.603
		l12.518,27.891l5.771-12.898l-6.724-14.992h2.601l5.436,12.096l5.413-12.096h2.601l-6.724,14.992l5.793,12.898l12.519-27.891
		H391.829z"/>
</g>
<g>
	<rect x="27" y="41.999" fill="#FED677" width="56" height="140"/>
	<polygon fill="#E1AA2A" points="27,41.999 7,41.999 7,174.38 27,181.471 	"/>
	<rect x="97" y="73.999" fill="#FED677" width="27" height="9"/>
	<rect x="97" y="113.999" fill="#FED677" width="27" height="9"/>
	<polygon fill="#E1AA2A" points="83,41.999 104,41.999 104,174.38 83,181.471 	"/>
	<rect x="115" y="80.999" fill="#FED677" width="9" height="42"/>
	<circle fill="#FFFFFF" cx="76.781" cy="46.656" r="16.887"/>
	<circle fill="#FFFFFF" cx="49.762" cy="35.398" r="16.887"/>
	<circle fill="#FFFFFF" cx="94.794" cy="33.146" r="16.887"/>
	<circle fill="#FFFFFF" cx="18.24" cy="28.644" r="16.887"/>
	<circle fill="#FFFFFF" cx="60.457" cy="47.219" r="9.569"/>
	<circle fill="#FFFFFF" cx="31.187" cy="35.961" r="9.569"/>
	<circle fill="#FFFFFF" cx="33.438" cy="20.2" r="9.569"/>
	<circle fill="#FFFFFF" cx="51.451" cy="24.703" r="9.569"/>
	<circle fill="#FFFFFF" cx="71.715" cy="29.206" r="9.569"/>
	<circle fill="#FFFFFF" cx="62.709" cy="22.452" r="9.569"/>
	<line fill="none" stroke="#FFEFCF" stroke-width="2" stroke-miterlimit="10" x1="39" y1="68.999" x2="39" y2="165.999"/>
	<line fill="none" stroke="#FED677" stroke-width="2" stroke-miterlimit="10" x1="93" y1="75.999" x2="93" y2="156.999"/>
	<line fill="none" stroke="#FED677" stroke-width="2" stroke-miterlimit="10" x1="17" y1="75.999" x2="17" y2="156.999"/>
	<line fill="none" stroke="#FFEFCF" stroke-width="2" stroke-miterlimit="10" x1="73" y1="68.999" x2="73" y2="165.999"/>
	<line fill="none" stroke="#FFEFCF" stroke-width="2" stroke-miterlimit="10" x1="57" y1="68.999" x2="57" y2="165.999"/>
</g>
<g>
	<path fill="none" stroke="#666666" stroke-width="1.2138" d="M158.561,149.18c0,0.777-0.284,1.458-0.853,2.041
		c0.569,0.583,0.853,1.264,0.853,2.041c0,0.844-0.327,1.567-0.981,2.169c-0.654,0.598-1.441,0.896-2.361,0.896h-4.14v-0.007h-0.398
		v-10.199h0.398v-0.007h4.14c0.919,0,1.707,0.299,2.361,0.896C158.234,147.612,158.561,148.336,158.561,149.18z M157.765,149.18
		c0-0.626-0.249-1.159-0.747-1.601c-0.498-0.445-1.098-0.668-1.799-0.668h-3.741v3.285h3.741c0.678,0,1.299,0.173,1.863,0.52
		C157.537,150.279,157.765,149.768,157.765,149.18z M156.321,151.221c-0.351-0.151-0.718-0.228-1.102-0.228h-3.741v0.455h3.741
		C155.603,151.448,155.97,151.372,156.321,151.221z M155.219,155.53c0.702,0,1.301-0.223,1.799-0.668
		c0.498-0.441,0.747-0.975,0.747-1.601c0-0.588-0.228-1.1-0.683-1.536c-0.564,0.346-1.186,0.52-1.863,0.52h-3.741v3.285H155.219z"/>
	<path fill="none" stroke="#666666" stroke-width="1.2138" d="M162.211,146.925v3.03c0.266,0.023,0.517,0.083,0.754,0.178
		c0.275,0.108,0.547,0.228,0.818,0.355c0.256,0.133,0.512,0.246,0.768,0.341c0.455,0.181,0.854,0.194,1.195,0.043
		c0.152-0.062,0.285-0.14,0.398-0.234c0.123-0.109,0.242-0.235,0.355-0.377c0.119-0.152,0.23-0.306,0.334-0.463l0.669,0.441
		c-0.114,0.166-0.237,0.337-0.37,0.512c-0.152,0.189-0.308,0.354-0.469,0.491c-0.18,0.151-0.382,0.274-0.604,0.369
		c-0.237,0.1-0.498,0.149-0.782,0.149c-0.351,0-0.688-0.062-1.01-0.185c-0.28-0.104-0.559-0.229-0.839-0.377
		c-0.251-0.113-0.503-0.226-0.754-0.334c-0.133-0.048-0.287-0.083-0.462-0.106v4.771h5.625v0.797h-6.429v-5.271
		c-0.142,0.181-0.251,0.358-0.327,0.534l-0.732-0.327c0.137-0.309,0.317-0.591,0.541-0.847c0.142-0.156,0.315-0.277,0.519-0.362
		v-3.927h6.429v0.797H162.211z"/>
	<path fill="none" stroke="#666666" stroke-width="1.2138" d="M171.487,146.925v3.03c0.266,0.023,0.517,0.083,0.754,0.178
		c0.275,0.108,0.547,0.228,0.818,0.355c0.256,0.133,0.512,0.246,0.768,0.341c0.455,0.181,0.854,0.194,1.195,0.043
		c0.152-0.062,0.285-0.14,0.398-0.234c0.123-0.109,0.242-0.235,0.355-0.377c0.119-0.152,0.23-0.306,0.334-0.463l0.669,0.441
		c-0.114,0.166-0.237,0.337-0.37,0.512c-0.151,0.189-0.308,0.354-0.469,0.491c-0.18,0.151-0.382,0.274-0.604,0.369
		c-0.237,0.1-0.498,0.149-0.782,0.149c-0.351,0-0.688-0.062-1.01-0.185c-0.28-0.104-0.559-0.229-0.839-0.377
		c-0.251-0.113-0.503-0.226-0.754-0.334c-0.133-0.048-0.287-0.083-0.462-0.106v4.771h5.625v0.797h-6.429v-5.271
		c-0.142,0.181-0.251,0.358-0.327,0.534l-0.732-0.327c0.137-0.309,0.317-0.591,0.541-0.847c0.142-0.156,0.315-0.277,0.519-0.362
		v-3.927h6.429v0.797H171.487z"/>
	<path fill="none" stroke="#666666" stroke-width="1.2138" d="M185.364,154.613c0.403,0.44,0.694,0.699,0.875,0.775
		c0.18,0.07,0.617,0.106,1.309,0.106v0.797c-0.834,0-1.377-0.053-1.628-0.157c-0.261-0.108-0.64-0.436-1.138-0.981l-2.709-2.888
		h-2.383v4.062h-0.789v-10.17h0.405v-0.008h4.118c0.92,0,1.705,0.299,2.354,0.896c0.65,0.598,0.975,1.315,0.975,2.155
		c0,0.844-0.325,1.566-0.975,2.169c-0.649,0.598-1.434,0.896-2.354,0.896h-0.27L185.364,154.613z M179.688,151.47h3.734
		c0.697,0,1.292-0.221,1.785-0.661c0.503-0.446,0.754-0.981,0.754-1.607c0-0.617-0.251-1.147-0.754-1.594
		c-0.493-0.44-1.088-0.661-1.785-0.661h-3.734V151.47z"/>
	<path fill="none" stroke="#666666" stroke-width="1.2138" d="M199.775,154.613c0.403,0.44,0.695,0.699,0.875,0.775
		c0.181,0.07,0.617,0.106,1.309,0.106v0.797c-0.834,0-1.377-0.053-1.628-0.157c-0.261-0.108-0.64-0.436-1.138-0.981l-2.71-2.888
		H194.1v4.062h-0.79v-10.17h0.405v-0.008h4.118c0.92,0,1.705,0.299,2.354,0.896s0.975,1.315,0.975,2.155
		c0,0.844-0.325,1.566-0.975,2.169c-0.649,0.598-1.434,0.896-2.354,0.896h-0.271L199.775,154.613z M194.1,151.47h3.734
		c0.697,0,1.292-0.221,1.785-0.661c0.502-0.446,0.754-0.981,0.754-1.607c0-0.617-0.251-1.147-0.754-1.594
		c-0.493-0.44-1.088-0.661-1.785-0.661H194.1V151.47z"/>
	<path fill="none" stroke="#666666" stroke-width="1.2138" d="M205.609,146.925v3.03c0.266,0.023,0.517,0.083,0.754,0.178
		c0.274,0.108,0.548,0.228,0.817,0.355c0.257,0.133,0.513,0.246,0.769,0.341c0.455,0.181,0.854,0.194,1.194,0.043
		c0.152-0.062,0.285-0.14,0.398-0.234c0.123-0.109,0.242-0.235,0.355-0.377c0.119-0.152,0.23-0.306,0.335-0.463l0.668,0.441
		c-0.113,0.166-0.237,0.337-0.369,0.512c-0.152,0.189-0.309,0.354-0.47,0.491c-0.181,0.151-0.382,0.274-0.604,0.369
		c-0.237,0.1-0.498,0.149-0.782,0.149c-0.352,0-0.688-0.062-1.01-0.185c-0.28-0.104-0.56-0.229-0.84-0.377
		c-0.251-0.113-0.502-0.226-0.754-0.334c-0.133-0.048-0.286-0.083-0.462-0.106v4.771h5.625v0.797h-6.429v-5.271
		c-0.143,0.181-0.251,0.358-0.327,0.534l-0.732-0.327c0.138-0.309,0.317-0.591,0.54-0.847c0.143-0.156,0.315-0.277,0.52-0.362
		v-3.927h6.429v0.797H205.609z"/>
	<path fill="none" stroke="#666666" stroke-width="1.2138" d="M222.45,153.923c-0.46,0.735-1.066,1.316-1.82,1.743
		c-0.772,0.44-1.607,0.661-2.504,0.661c-1.406,0-2.61-0.498-3.611-1.493c-0.996-1.001-1.493-2.205-1.493-3.613
		c0-1.403,0.497-2.605,1.493-3.605c1.001-0.996,2.205-1.494,3.611-1.494c0.892,0,1.727,0.221,2.504,0.662
		c0.749,0.426,1.354,1.007,1.813,1.742h-0.967c-0.403-0.503-0.892-0.894-1.466-1.174c-0.592-0.289-1.221-0.434-1.885-0.434
		c-1.189,0-2.203,0.42-3.042,1.259c-0.845,0.844-1.267,1.858-1.267,3.044c0,1.19,0.422,2.205,1.267,3.044
		c0.839,0.844,1.853,1.266,3.042,1.266c0.664,0,1.293-0.146,1.885-0.44c0.574-0.28,1.062-0.669,1.466-1.167H222.45z"/>
	<path fill="none" stroke="#666666" stroke-width="1.2138" d="M224.238,146.143h0.796v10.185h-0.796V146.143z"/>
	<path fill="none" stroke="#666666" stroke-width="1.2138" d="M231.353,146.136c0.92,0,1.704,0.299,2.354,0.896
		c0.654,0.598,0.981,1.318,0.981,2.162c0,0.845-0.327,1.565-0.981,2.162c-0.65,0.598-1.435,0.896-2.354,0.896h-3.733v4.075h-0.797
		v-10.185h0.398v-0.007H231.353z M231.353,151.455c0.697,0,1.294-0.218,1.792-0.654c0.498-0.445,0.747-0.981,0.747-1.607
		s-0.249-1.156-0.747-1.593c-0.498-0.445-1.095-0.669-1.792-0.669h-3.733v4.523H231.353z"/>
	<path fill="none" stroke="#666666" stroke-width="1.2138" d="M238.337,146.925v3.03c0.265,0.023,0.517,0.083,0.754,0.178
		c0.274,0.108,0.547,0.228,0.817,0.355c0.256,0.133,0.512,0.246,0.769,0.341c0.455,0.181,0.854,0.194,1.194,0.043
		c0.152-0.062,0.284-0.14,0.398-0.234c0.123-0.109,0.242-0.235,0.355-0.377c0.118-0.152,0.23-0.306,0.334-0.463l0.669,0.441
		c-0.114,0.166-0.237,0.337-0.37,0.512c-0.151,0.189-0.308,0.354-0.469,0.491c-0.181,0.151-0.382,0.274-0.604,0.369
		c-0.237,0.1-0.498,0.149-0.783,0.149c-0.351,0-0.688-0.062-1.01-0.185c-0.279-0.104-0.56-0.229-0.839-0.377
		c-0.251-0.113-0.503-0.226-0.754-0.334c-0.133-0.048-0.287-0.083-0.462-0.106v4.771h5.625v0.797h-6.429v-5.271
		c-0.143,0.181-0.252,0.358-0.327,0.534l-0.732-0.327c0.137-0.309,0.317-0.591,0.54-0.847c0.143-0.156,0.315-0.277,0.52-0.362
		v-3.927h6.429v0.797H238.337z"/>
	<path fill="none" stroke="#666666" stroke-width="1.2138" d="M258.879,152.465c-0.133,0.143-0.282,0.28-0.448,0.413l1.55,3.449
		h-0.874l-1.366-3.044c-0.009,0-0.021,0.005-0.035,0.014c-0.01,0.005-0.019,0.01-0.028,0.015c-0.261,0.09-0.548,0.135-0.86,0.135
		c-0.39,0-0.759-0.057-1.109-0.17c-0.323-0.109-0.643-0.235-0.961-0.377c-0.284-0.119-0.573-0.23-0.867-0.335
		c-0.659-0.228-1.162-0.191-1.508,0.107c-0.123,0.108-0.247,0.284-0.37,0.526l-1.401,3.129h-0.874l1.521-3.393h-0.007l0.043-0.078
		v-0.007l3.008-6.7h1.124l2.681,5.975c0.066-0.062,0.129-0.126,0.186-0.192c0.138-0.151,0.268-0.308,0.391-0.469l0.634,0.483
		c-0.133,0.171-0.199,0.256-0.199,0.256S259.03,152.29,258.879,152.465z M257.399,152.564l0.007-0.007h0.007l-2.56-5.711
		l-2.17,4.829c0.133-0.023,0.257-0.035,0.37-0.035c0.379,0,0.742,0.059,1.088,0.178c0.313,0.108,0.621,0.225,0.925,0.349
		c0.299,0.137,0.595,0.253,0.889,0.348c0.546,0.186,0.818,0.277,0.818,0.277S256.982,152.717,257.399,152.564z"/>
	<path fill="none" stroke="#666666" stroke-width="1.2138" d="M270.53,146.136v10.191h-0.789v-2.347l-7.177-6.913v9.26h-0.796
		v-10.191h0.967l7.006,6.735v-6.735H270.53z"/>
	<path fill="none" stroke="#666666" stroke-width="1.2138" d="M272.318,156.327v-10.185h3.541c1.403,0,2.604,0.498,3.599,1.493
		c0.996,0.996,1.494,2.195,1.494,3.599c0,1.404-0.498,2.604-1.494,3.6c-0.995,0.995-2.195,1.493-3.599,1.493H272.318z
		 M273.114,155.53h2.745c1.186,0,2.198-0.419,3.037-1.259c0.839-0.839,1.259-1.852,1.259-3.037c0-1.185-0.42-2.197-1.259-3.036
		c-0.839-0.84-1.852-1.259-3.037-1.259h-2.745V155.53z"/>
	<path fill="none" stroke="#666666" stroke-width="1.2138" d="M286.715,146.143h0.797v10.185h-0.797V146.143z"/>
	<path fill="none" stroke="#666666" stroke-width="1.2138" d="M298.059,146.136v10.191h-0.789v-2.347l-7.176-6.913v9.26h-0.797
		v-10.191h0.967l7.006,6.735v-6.735H298.059z"/>
	<path fill="none" stroke="#666666" stroke-width="1.2138" d="M301.702,146.918v3.029c0.271,0.024,0.524,0.083,0.762,0.178
		c0.274,0.109,0.547,0.228,0.817,0.356c0.256,0.132,0.515,0.248,0.775,0.348c0.45,0.176,0.849,0.19,1.195,0.043
		c0.151-0.062,0.284-0.143,0.397-0.242c0.124-0.104,0.24-0.228,0.349-0.369c0.123-0.156,0.237-0.313,0.342-0.47l0.661,0.441
		c-0.113,0.17-0.237,0.344-0.37,0.519c-0.142,0.186-0.296,0.349-0.462,0.491c-0.181,0.151-0.384,0.274-0.611,0.369
		c-0.232,0.1-0.493,0.149-0.782,0.149c-0.352,0-0.686-0.062-1.003-0.185c-0.285-0.109-0.566-0.234-0.847-0.377
		c-0.251-0.118-0.503-0.229-0.754-0.334c-0.133-0.053-0.289-0.088-0.47-0.106v5.568h-0.796v-5.277
		c-0.143,0.181-0.254,0.358-0.335,0.533l-0.725-0.319c0.137-0.309,0.317-0.591,0.54-0.847c0.143-0.161,0.315-0.284,0.52-0.37v-3.926
		h6.437v0.797H301.702z"/>
	<path fill="none" stroke="#666666" stroke-width="1.2138" d="M319.314,151.214c0,1.327-0.453,2.479-1.358,3.456
		c-0.905,0.968-2.016,1.503-3.328,1.607v0.569h-0.797v-0.569c-1.313-0.104-2.421-0.64-3.321-1.607
		c-0.91-0.977-1.365-2.129-1.365-3.456c0-1.333,0.455-2.487,1.365-3.464c0.9-0.967,2.008-1.503,3.321-1.607v-0.569h0.797v0.569
		c1.312,0.104,2.423,0.643,3.328,1.614C318.861,148.729,319.314,149.881,319.314,151.214z M309.94,151.214
		c0,1.109,0.375,2.074,1.124,2.895c0.749,0.815,1.671,1.272,2.767,1.372v-8.541c-1.096,0.1-2.018,0.557-2.767,1.372
		C310.315,149.132,309.94,150.1,309.94,151.214z M314.628,155.48c1.095-0.1,2.017-0.557,2.767-1.372
		c0.749-0.82,1.123-1.785,1.123-2.895c0-1.114-0.374-2.082-1.123-2.902c-0.75-0.815-1.672-1.272-2.767-1.372V155.48z"/>
	<path fill="none" stroke="#666666" stroke-width="1.2138" d="M326.955,146.918v3.029c0.271,0.024,0.524,0.083,0.761,0.178
		c0.275,0.109,0.548,0.228,0.818,0.356c0.256,0.132,0.515,0.248,0.775,0.348c0.45,0.176,0.849,0.19,1.194,0.043
		c0.151-0.062,0.284-0.143,0.398-0.242c0.123-0.104,0.239-0.228,0.349-0.369c0.123-0.156,0.237-0.313,0.341-0.47l0.662,0.441
		c-0.114,0.17-0.237,0.344-0.37,0.519c-0.143,0.186-0.296,0.349-0.462,0.491c-0.181,0.151-0.385,0.274-0.612,0.369
		c-0.232,0.1-0.493,0.149-0.782,0.149c-0.351,0-0.685-0.062-1.003-0.185c-0.284-0.109-0.566-0.234-0.846-0.377
		c-0.252-0.118-0.503-0.229-0.754-0.334c-0.133-0.053-0.289-0.088-0.47-0.106v5.568h-0.797v-5.277
		c-0.142,0.181-0.253,0.358-0.334,0.533l-0.726-0.319c0.138-0.309,0.318-0.591,0.541-0.847c0.142-0.161,0.315-0.284,0.519-0.37
		v-3.926h6.437v0.797H326.955z"/>
	<path fill="none" stroke="#666666" stroke-width="1.2138" d="M344.564,151.214c0,1.327-0.453,2.479-1.358,3.456
		c-0.905,0.968-2.015,1.503-3.328,1.607v0.569h-0.797v-0.569c-1.313-0.104-2.421-0.64-3.321-1.607
		c-0.91-0.977-1.365-2.129-1.365-3.456c0-1.333,0.455-2.487,1.365-3.464c0.9-0.967,2.008-1.503,3.321-1.607v-0.569h0.797v0.569
		c1.313,0.104,2.423,0.643,3.328,1.614C344.111,148.729,344.564,149.881,344.564,151.214z M335.19,151.214
		c0,1.109,0.375,2.074,1.124,2.895c0.749,0.815,1.672,1.272,2.767,1.372v-8.541c-1.095,0.1-2.018,0.557-2.767,1.372
		C335.565,149.132,335.19,150.1,335.19,151.214z M339.878,155.48c1.095-0.1,2.018-0.557,2.767-1.372
		c0.749-0.82,1.123-1.785,1.123-2.895c0-1.114-0.374-2.082-1.123-2.902c-0.749-0.815-1.672-1.272-2.767-1.372V155.48z"/>
	<path fill="none" stroke="#666666" stroke-width="1.2138" d="M352.838,154.613c0.403,0.44,0.695,0.699,0.875,0.775
		c0.181,0.07,0.616,0.106,1.309,0.106v0.797c-0.834,0-1.377-0.053-1.629-0.157c-0.261-0.108-0.64-0.436-1.138-0.981l-2.71-2.888
		h-2.382v4.062h-0.79v-10.17h0.405v-0.008h4.118c0.92,0,1.705,0.299,2.354,0.896s0.974,1.315,0.974,2.155
		c0,0.844-0.324,1.566-0.974,2.169c-0.649,0.598-1.435,0.896-2.354,0.896h-0.271L352.838,154.613z M347.163,151.47h3.733
		c0.697,0,1.292-0.221,1.785-0.661c0.503-0.446,0.754-0.981,0.754-1.607c0-0.617-0.251-1.147-0.754-1.594
		c-0.493-0.44-1.088-0.661-1.785-0.661h-3.733V151.47z"/>
	<path fill="none" stroke="#666666" stroke-width="1.2138" d="M365.229,146.143v5.583c0,1.266-0.412,2.35-1.237,3.25
		c-0.82,0.901-1.812,1.352-2.973,1.352c-1.162,0-2.152-0.45-2.973-1.352c-0.825-0.9-1.237-1.984-1.237-3.25v-5.583h0.796v5.583
		c0,1.048,0.334,1.944,1.003,2.688s1.473,1.116,2.411,1.116s1.742-0.372,2.411-1.116c0.668-0.744,1.003-1.641,1.003-2.688v-5.583
		H365.229z"/>
	<path fill="none" stroke="#666666" stroke-width="1.2138" d="M376.566,146.149v10.178h-0.797v-8.841l-3.982,6.089l-3.976-6.089
		v8.841h-0.797v-10.178h0.875l3.897,5.968l3.904-5.968H376.566z"/>
</g>
<g>
	<path fill="#FFEFCF" d="M157.348,148.37c0,0.777-0.285,1.458-0.854,2.041c0.569,0.583,0.854,1.264,0.854,2.041
		c0,0.844-0.327,1.567-0.981,2.169c-0.655,0.598-1.441,0.896-2.361,0.896h-4.139v-0.007h-0.398v-10.199h0.398v-0.007h4.139
		c0.92,0,1.707,0.299,2.361,0.896C157.021,146.803,157.348,147.526,157.348,148.37z M156.551,148.37
		c0-0.626-0.249-1.159-0.747-1.601c-0.498-0.445-1.098-0.668-1.799-0.668h-3.741v3.285h3.741c0.678,0,1.299,0.173,1.863,0.52
		C156.323,149.47,156.551,148.958,156.551,148.37z M155.107,150.411c-0.351-0.151-0.718-0.228-1.102-0.228h-3.741v0.455h3.741
		C154.389,150.639,154.756,150.562,155.107,150.411z M154.005,154.721c0.702,0,1.301-0.223,1.799-0.668
		c0.498-0.441,0.747-0.975,0.747-1.601c0-0.588-0.228-1.1-0.683-1.536c-0.564,0.346-1.186,0.52-1.863,0.52h-3.741v3.285H154.005z"/>
	<path fill="#FFEFCF" d="M160.997,146.115v3.03c0.266,0.023,0.517,0.083,0.754,0.178c0.275,0.108,0.548,0.228,0.818,0.355
		c0.256,0.133,0.512,0.246,0.768,0.341c0.455,0.181,0.854,0.194,1.195,0.043c0.152-0.062,0.285-0.14,0.398-0.234
		c0.123-0.109,0.242-0.235,0.355-0.377c0.119-0.152,0.23-0.306,0.334-0.463l0.668,0.441c-0.114,0.166-0.237,0.337-0.37,0.512
		c-0.151,0.189-0.308,0.354-0.469,0.491c-0.18,0.151-0.382,0.274-0.604,0.369c-0.237,0.1-0.498,0.149-0.782,0.149
		c-0.351,0-0.688-0.062-1.01-0.185c-0.28-0.104-0.56-0.229-0.839-0.377c-0.251-0.113-0.503-0.226-0.754-0.334
		c-0.133-0.048-0.287-0.083-0.462-0.106v4.771h5.625v0.797h-6.429v-5.271c-0.142,0.181-0.251,0.358-0.327,0.534l-0.732-0.327
		c0.138-0.309,0.317-0.591,0.541-0.847c0.142-0.156,0.315-0.277,0.519-0.362v-3.927h6.429v0.797H160.997z"/>
	<path fill="#FFEFCF" d="M170.273,146.115v3.03c0.266,0.023,0.517,0.083,0.754,0.178c0.275,0.108,0.548,0.228,0.818,0.355
		c0.256,0.133,0.512,0.246,0.768,0.341c0.455,0.181,0.854,0.194,1.195,0.043c0.152-0.062,0.285-0.14,0.398-0.234
		c0.123-0.109,0.242-0.235,0.355-0.377c0.119-0.152,0.23-0.306,0.334-0.463l0.668,0.441c-0.114,0.166-0.237,0.337-0.37,0.512
		c-0.151,0.189-0.308,0.354-0.469,0.491c-0.18,0.151-0.382,0.274-0.604,0.369c-0.237,0.1-0.498,0.149-0.782,0.149
		c-0.351,0-0.688-0.062-1.01-0.185c-0.28-0.104-0.56-0.229-0.839-0.377c-0.251-0.113-0.503-0.226-0.754-0.334
		c-0.133-0.048-0.287-0.083-0.462-0.106v4.771h5.625v0.797h-6.429v-5.271c-0.142,0.181-0.251,0.358-0.327,0.534l-0.732-0.327
		c0.138-0.309,0.318-0.591,0.541-0.847c0.142-0.156,0.315-0.277,0.519-0.362v-3.927h6.429v0.797H170.273z"/>
	<path fill="#FFEFCF" d="M184.15,153.804c0.403,0.44,0.694,0.699,0.875,0.775c0.18,0.07,0.617,0.106,1.309,0.106v0.797
		c-0.834,0-1.377-0.053-1.628-0.157c-0.261-0.108-0.64-0.436-1.138-0.981l-2.709-2.888h-2.382v4.062h-0.79v-10.17h0.405v-0.008
		h4.118c0.92,0,1.705,0.299,2.354,0.896c0.649,0.598,0.974,1.315,0.974,2.155c0,0.844-0.325,1.566-0.974,2.169
		c-0.65,0.598-1.435,0.896-2.354,0.896h-0.27L184.15,153.804z M178.475,150.66h3.733c0.697,0,1.292-0.221,1.785-0.661
		c0.503-0.446,0.754-0.982,0.754-1.607c0-0.617-0.251-1.147-0.754-1.594c-0.493-0.44-1.088-0.661-1.785-0.661h-3.733V150.66z"/>
	<path fill="#FFEFCF" d="M198.561,153.804c0.403,0.44,0.695,0.699,0.875,0.775c0.18,0.07,0.616,0.106,1.308,0.106v0.797
		c-0.834,0-1.377-0.053-1.628-0.157c-0.261-0.108-0.64-0.436-1.138-0.981l-2.709-2.888h-2.383v4.062h-0.79v-10.17h0.406v-0.008
		h4.118c0.92,0,1.705,0.299,2.354,0.896s0.975,1.315,0.975,2.155c0,0.844-0.325,1.566-0.975,2.169
		c-0.649,0.598-1.434,0.896-2.354,0.896h-0.271L198.561,153.804z M192.886,150.66h3.734c0.697,0,1.292-0.221,1.785-0.661
		c0.502-0.446,0.754-0.982,0.754-1.607c0-0.617-0.251-1.147-0.754-1.594c-0.493-0.44-1.088-0.661-1.785-0.661h-3.734V150.66z"/>
	<path fill="#FFEFCF" d="M204.396,146.115v3.03c0.266,0.023,0.517,0.083,0.754,0.178c0.274,0.108,0.548,0.228,0.817,0.355
		c0.257,0.133,0.513,0.246,0.769,0.341c0.455,0.181,0.854,0.194,1.194,0.043c0.152-0.062,0.285-0.14,0.398-0.234
		c0.124-0.109,0.242-0.235,0.355-0.377c0.119-0.152,0.23-0.306,0.335-0.463l0.668,0.441c-0.113,0.166-0.236,0.337-0.369,0.512
		c-0.152,0.189-0.309,0.354-0.47,0.491c-0.181,0.151-0.382,0.274-0.604,0.369c-0.237,0.1-0.498,0.149-0.782,0.149
		c-0.351,0-0.688-0.062-1.01-0.185c-0.28-0.104-0.56-0.229-0.84-0.377c-0.251-0.113-0.502-0.226-0.754-0.334
		c-0.133-0.048-0.286-0.083-0.462-0.106v4.771h5.626v0.797h-6.43v-5.271c-0.143,0.181-0.251,0.358-0.327,0.534l-0.732-0.327
		c0.138-0.309,0.317-0.591,0.54-0.847c0.143-0.156,0.315-0.277,0.52-0.362v-3.927h6.43v0.797H204.396z"/>
	<path fill="#FFEFCF" d="M221.236,153.113c-0.459,0.735-1.066,1.316-1.82,1.743c-0.772,0.44-1.607,0.661-2.503,0.661
		c-1.407,0-2.611-0.498-3.612-1.493c-0.995-1.001-1.493-2.205-1.493-3.613c0-1.403,0.498-2.605,1.493-3.605
		c1.001-0.996,2.205-1.494,3.612-1.494c0.891,0,1.726,0.221,2.503,0.661c0.749,0.427,1.354,1.008,1.813,1.743h-0.967
		c-0.403-0.503-0.892-0.894-1.466-1.174c-0.592-0.289-1.221-0.434-1.884-0.434c-1.19,0-2.204,0.42-3.043,1.259
		c-0.844,0.844-1.267,1.858-1.267,3.044c0,1.19,0.423,2.205,1.267,3.044c0.839,0.844,1.853,1.266,3.043,1.266
		c0.663,0,1.292-0.146,1.884-0.44c0.574-0.28,1.062-0.669,1.466-1.167H221.236z"/>
	<path fill="#FFEFCF" d="M223.024,145.333h0.797v10.185h-0.797V145.333z"/>
	<path fill="#FFEFCF" d="M230.139,145.326c0.92,0,1.704,0.299,2.354,0.896c0.654,0.598,0.981,1.318,0.981,2.162
		c0,0.845-0.327,1.565-0.981,2.162c-0.65,0.598-1.435,0.896-2.354,0.896h-3.733v4.075h-0.797v-10.185h0.398v-0.007H230.139z
		 M230.139,150.646c0.697,0,1.295-0.218,1.792-0.654c0.498-0.445,0.747-0.981,0.747-1.607s-0.249-1.156-0.747-1.593
		c-0.497-0.445-1.095-0.669-1.792-0.669h-3.733v4.523H230.139z"/>
	<path fill="#FFEFCF" d="M237.123,146.115v3.03c0.266,0.023,0.517,0.083,0.754,0.178c0.274,0.108,0.547,0.228,0.817,0.355
		c0.256,0.133,0.513,0.246,0.769,0.341c0.455,0.181,0.854,0.194,1.194,0.043c0.152-0.062,0.285-0.14,0.398-0.234
		c0.123-0.109,0.242-0.235,0.355-0.377c0.119-0.152,0.23-0.306,0.334-0.463l0.669,0.441c-0.113,0.166-0.237,0.337-0.37,0.512
		c-0.151,0.189-0.308,0.354-0.469,0.491c-0.181,0.151-0.382,0.274-0.604,0.369c-0.237,0.1-0.498,0.149-0.782,0.149
		c-0.352,0-0.688-0.062-1.011-0.185c-0.279-0.104-0.559-0.229-0.839-0.377c-0.251-0.113-0.503-0.226-0.754-0.334
		c-0.133-0.048-0.287-0.083-0.462-0.106v4.771h5.625v0.797h-6.429v-5.271c-0.143,0.181-0.252,0.358-0.327,0.534l-0.732-0.327
		c0.137-0.309,0.317-0.591,0.54-0.847c0.143-0.156,0.315-0.277,0.52-0.362v-3.927h6.429v0.797H237.123z"/>
	<path fill="#FFEFCF" d="M257.665,151.655c-0.133,0.143-0.282,0.28-0.448,0.413l1.551,3.449h-0.875l-1.366-3.044
		c-0.009,0-0.021,0.005-0.035,0.014c-0.01,0.005-0.019,0.01-0.028,0.015c-0.261,0.09-0.548,0.135-0.86,0.135
		c-0.389,0-0.759-0.057-1.109-0.17c-0.323-0.109-0.643-0.235-0.961-0.377c-0.284-0.119-0.573-0.23-0.867-0.335
		c-0.659-0.228-1.162-0.191-1.508,0.107c-0.123,0.108-0.247,0.284-0.37,0.526l-1.4,3.129h-0.875l1.521-3.393h-0.007l0.043-0.078
		v-0.007l3.008-6.7h1.124l2.682,5.975c0.066-0.062,0.128-0.126,0.185-0.192c0.138-0.151,0.268-0.308,0.391-0.469l0.634,0.483
		c-0.133,0.171-0.199,0.256-0.199,0.256S257.816,151.48,257.665,151.655z M256.186,151.755l0.007-0.007h0.007l-2.56-5.711
		l-2.17,4.829c0.133-0.023,0.257-0.035,0.37-0.035c0.38,0,0.742,0.059,1.088,0.178c0.313,0.108,0.621,0.225,0.925,0.349
		c0.299,0.137,0.595,0.253,0.889,0.348c0.546,0.186,0.818,0.277,0.818,0.277S255.769,151.907,256.186,151.755z"/>
	<path fill="#FFEFCF" d="M269.316,145.326v10.191h-0.789v-2.347l-7.176-6.913v9.26h-0.797v-10.191h0.967l7.006,6.735v-6.735H269.316
		z"/>
	<path fill="#FFEFCF" d="M271.104,155.518v-10.185h3.541c1.404,0,2.604,0.498,3.599,1.493c0.996,0.996,1.494,2.195,1.494,3.599
		c0,1.404-0.498,2.604-1.494,3.6c-0.995,0.995-2.194,1.493-3.599,1.493H271.104z M271.9,154.721h2.745
		c1.186,0,2.198-0.419,3.037-1.259c0.84-0.839,1.259-1.852,1.259-3.037c0-1.185-0.419-2.197-1.259-3.036
		c-0.839-0.84-1.852-1.259-3.037-1.259H271.9V154.721z"/>
	<path fill="#FFEFCF" d="M285.501,145.333h0.797v10.185h-0.797V145.333z"/>
	<path fill="#FFEFCF" d="M296.845,145.326v10.191h-0.789v-2.347l-7.176-6.913v9.26h-0.797v-10.191h0.967l7.006,6.735v-6.735H296.845
		z"/>
	<path fill="#FFEFCF" d="M300.488,146.108v3.029c0.271,0.024,0.524,0.083,0.762,0.178c0.274,0.109,0.548,0.228,0.817,0.356
		c0.256,0.132,0.515,0.248,0.775,0.348c0.45,0.176,0.849,0.19,1.195,0.043c0.151-0.062,0.284-0.143,0.397-0.242
		c0.124-0.104,0.24-0.228,0.349-0.369c0.124-0.156,0.237-0.313,0.342-0.47l0.661,0.441c-0.113,0.17-0.237,0.344-0.37,0.519
		c-0.142,0.186-0.296,0.349-0.462,0.491c-0.18,0.151-0.384,0.274-0.611,0.369c-0.232,0.1-0.493,0.149-0.782,0.149
		c-0.352,0-0.686-0.062-1.003-0.185c-0.285-0.109-0.566-0.234-0.847-0.377c-0.251-0.118-0.503-0.229-0.754-0.334
		c-0.133-0.053-0.289-0.088-0.47-0.106v5.568h-0.796v-5.277c-0.143,0.181-0.254,0.358-0.334,0.533l-0.726-0.319
		c0.138-0.309,0.317-0.591,0.54-0.847c0.143-0.161,0.315-0.284,0.52-0.37v-3.926h6.437v0.797H300.488z"/>
	<path fill="#FFEFCF" d="M318.101,150.404c0,1.327-0.453,2.479-1.358,3.456c-0.905,0.968-2.015,1.503-3.328,1.607v0.569h-0.797
		v-0.569c-1.313-0.104-2.421-0.64-3.321-1.607c-0.91-0.977-1.365-2.129-1.365-3.456c0-1.333,0.455-2.487,1.365-3.464
		c0.9-0.968,2.008-1.503,3.321-1.607v-0.569h0.797v0.569c1.313,0.104,2.423,0.643,3.328,1.614
		C317.647,147.92,318.101,149.071,318.101,150.404z M308.727,150.404c0,1.109,0.375,2.074,1.124,2.895
		c0.749,0.815,1.671,1.272,2.767,1.372v-8.541c-1.096,0.1-2.018,0.557-2.767,1.372C309.102,148.322,308.727,149.29,308.727,150.404z
		 M313.414,154.671c1.095-0.1,2.018-0.557,2.767-1.372c0.749-0.82,1.123-1.785,1.123-2.895c0-1.114-0.374-2.082-1.123-2.902
		c-0.749-0.815-1.672-1.272-2.767-1.372V154.671z"/>
	<path fill="#FFEFCF" d="M325.741,146.108v3.029c0.271,0.024,0.524,0.083,0.761,0.178c0.275,0.109,0.548,0.228,0.818,0.356
		c0.256,0.132,0.515,0.248,0.775,0.348c0.45,0.176,0.849,0.19,1.194,0.043c0.152-0.062,0.284-0.143,0.398-0.242
		c0.123-0.104,0.239-0.228,0.349-0.369c0.123-0.156,0.237-0.313,0.341-0.47l0.662,0.441c-0.114,0.17-0.237,0.344-0.37,0.519
		c-0.143,0.186-0.296,0.349-0.462,0.491c-0.181,0.151-0.385,0.274-0.612,0.369c-0.232,0.1-0.493,0.149-0.782,0.149
		c-0.351,0-0.685-0.062-1.003-0.185c-0.284-0.109-0.566-0.234-0.846-0.377c-0.252-0.118-0.503-0.229-0.754-0.334
		c-0.133-0.053-0.289-0.088-0.47-0.106v5.568h-0.797v-5.277c-0.142,0.181-0.253,0.358-0.334,0.533l-0.726-0.319
		c0.138-0.309,0.318-0.591,0.541-0.847c0.142-0.161,0.315-0.284,0.519-0.37v-3.926h6.437v0.797H325.741z"/>
	<path fill="#FFEFCF" d="M343.351,150.404c0,1.327-0.452,2.479-1.358,3.456c-0.905,0.968-2.015,1.503-3.328,1.607v0.569h-0.797
		v-0.569c-1.313-0.104-2.42-0.64-3.321-1.607c-0.91-0.977-1.365-2.129-1.365-3.456c0-1.333,0.455-2.487,1.365-3.464
		c0.901-0.968,2.008-1.503,3.321-1.607v-0.569h0.797v0.569c1.313,0.104,2.423,0.643,3.328,1.614
		C342.898,147.92,343.351,149.071,343.351,150.404z M333.977,150.404c0,1.109,0.375,2.074,1.124,2.895
		c0.749,0.815,1.672,1.272,2.767,1.372v-8.541c-1.095,0.1-2.018,0.557-2.767,1.372C334.352,148.322,333.977,149.29,333.977,150.404z
		 M338.664,154.671c1.095-0.1,2.018-0.557,2.767-1.372c0.749-0.82,1.124-1.785,1.124-2.895c0-1.114-0.375-2.082-1.124-2.902
		c-0.749-0.815-1.672-1.272-2.767-1.372V154.671z"/>
	<path fill="#FFEFCF" d="M351.624,153.804c0.403,0.44,0.695,0.699,0.875,0.775c0.181,0.07,0.616,0.106,1.309,0.106v0.797
		c-0.834,0-1.377-0.053-1.628-0.157c-0.262-0.108-0.641-0.436-1.139-0.981l-2.709-2.888h-2.383v4.062h-0.79v-10.17h0.405v-0.008
		h4.118c0.92,0,1.705,0.299,2.354,0.896s0.975,1.315,0.975,2.155c0,0.844-0.325,1.566-0.975,2.169
		c-0.649,0.598-1.435,0.896-2.354,0.896h-0.271L351.624,153.804z M345.949,150.66h3.733c0.697,0,1.292-0.221,1.785-0.661
		c0.503-0.446,0.754-0.982,0.754-1.607c0-0.617-0.251-1.147-0.754-1.594c-0.493-0.44-1.088-0.661-1.785-0.661h-3.733V150.66z"/>
	<path fill="#FFEFCF" d="M364.016,145.333v5.583c0,1.266-0.412,2.35-1.237,3.25c-0.82,0.901-1.812,1.352-2.973,1.352
		s-2.152-0.45-2.973-1.352c-0.825-0.9-1.237-1.984-1.237-3.25v-5.583h0.796v5.583c0,1.048,0.335,1.944,1.003,2.688
		c0.669,0.744,1.473,1.116,2.411,1.116s1.742-0.372,2.411-1.116c0.668-0.744,1.003-1.641,1.003-2.688v-5.583H364.016z"/>
	<path fill="#FFEFCF" d="M375.353,145.34v10.178h-0.797v-8.841l-3.982,6.089l-3.976-6.089v8.841h-0.797V145.34h0.875l3.897,5.968
		l3.904-5.968H375.353z"/>
</g>
</svg>
